<svg xmlns="http://www.w3.org/2000/svg" viewBox="0 0 127.83 127.79"><defs><style>.cls-1{fill:#5f5193;}.cls-2{fill:#54358e;}.cls-3{fill:#f9f7fb;}.cls-4{fill:none;stroke:#f9f7fb;stroke-miterlimit:10;stroke-width:0.25px;}</style></defs><g id="Layer_2" data-name="Layer 2"><g id="A2-2"><circle class="cls-1" cx="63.91" cy="63.91" r="61.41"/><path class="cls-2" d="M122.83,63.91a58.91,58.91,0,0,1-75.06,56.67A59.33,59.33,0,0,1,18.4,101.33,58.63,58.63,0,0,1,5.18,68.63,58.91,58.91,0,0,1,106.49,23.19a59.34,59.34,0,0,1,15.66,31.69,58.13,58.13,0,0,1,.68,9c0,3.22,5,3.22,5,0A64.1,64.1,0,0,0,116.06,27,63.9,63.9,0,0,0,46.44,2.42a63.92,63.92,0,0,0-9.06,119.64,64.77,64.77,0,0,0,39.41,4.46A63.92,63.92,0,0,0,127,73.93a68.6,68.6,0,0,0,.8-10C127.83,60.69,122.83,60.69,122.83,63.91Z"/><path class="cls-3" d="M41.71,62.55H97.54a.63.63,0,0,0,0-1.25H41.71a.63.63,0,0,0,0,1.25Z"/><path class="cls-3" d="M35.65,48.84h62.4a.63.63,0,0,0,0-1.25H35.65a.63.63,0,0,0,0,1.25Z"/><path class="cls-3" d="M46.2,72.73H98.05a.63.63,0,0,0,.63-.62V40.49a.64.64,0,0,0-.63-.63L76,40.26l-35.17.63L32.76,41a.63.63,0,0,0,0,1.25l22.07-.4L90,41.26l8-.15-.62-.62V72.11l.62-.63H46.2a.63.63,0,0,0,0,1.25Z"/><path class="cls-3" d="M98.05,80.94H50.65l1.08.62-6-13.63L36.05,46.05l-2.21-5a1.24,1.24,0,0,0-1.08-.62H14.55a1.25,1.25,0,0,0,0,2.5H32.76l-1.08-.61,6,13.63L47.36,77.8l2.22,5a1.21,1.21,0,0,0,1.07.62h47.4a1.25,1.25,0,0,0,0-2.5Z"/><circle class="cls-4" cx="58.91" cy="86.72" r="2.61"/><circle class="cls-4" cx="91.45" cy="86.72" r="2.61"/></g></g></svg>