<?xml version="1.0" encoding="iso-8859-1"?>
<!-- Generator: Adobe Illustrator 25.4.1, SVG Export Plug-In . SVG Version: 6.00 Build 0)  -->
<svg version="1.1" xmlns="http://www.w3.org/2000/svg" xmlns:xlink="http://www.w3.org/1999/xlink" x="0px" y="0px"
	 viewBox="0 0 1366 768" style="enable-background:new 0 0 1366 768;" xml:space="preserve">
<g id="backhrouund">
	<g>
		<rect style="fill:#9F5B15;" width="1366" height="83"/>
		<rect y="82" style="fill:#683A0B;" width="1366" height="83"/>
		<rect y="164" style="fill:#3E2209;" width="1366" height="83"/>
		<rect y="246" style="fill:#535B7B;" width="1366" height="83"/>
		<rect y="328" style="fill:#2D313E;" width="1366" height="83"/>
		<rect y="410" style="fill:#958830;" width="1366" height="83"/>
		<rect y="492" style="fill:#FAFF24;" width="1366" height="83"/>
		<rect y="574" style="fill:#862C19;" width="1366" height="83"/>
		<rect y="656" style="fill:#232222;" width="1366" height="83"/>
		<rect y="738" style="fill:#13100D;" width="1366" height="83"/>
	</g>
</g>
<g id="Layer_5">
	<path style="fill:#0C0C0C;" d="M965,384c0,155.744-126.256,282-282,282S401,539.744,401,384c0-69.114,24.863-132.42,66.133-181.464
		c4.537-5.392,9.273-10.611,14.195-15.647C532.529,134.511,603.968,102,683,102C838.744,102,965,228.256,965,384z"/>
	
		<image style="display:none;overflow:visible;" width="284" height="177" xlink:href="C:\Users\bilal\Downloads\download (2).jpg"  transform="matrix(2.7064 0 0 2.7064 -40 -636)">
	</image>
	<path style="fill:#FFFFFF;" d="M627.601,191.022"/>
	<path style="display:none;fill:#FFFFFF;" d="M783,187.5c0,47.22-44.1,85.5-98.5,85.5S586,234.72,586,187.5
		c0-20.955,8.684-40.149,23.1-55.018c1.585-1.635,3.239-3.217,4.958-4.744C631.942,111.857,656.895,102,684.5,102
		C738.9,102,783,140.28,783,187.5z"/>
	<g>
		<image style="overflow:visible;" width="138" height="58" xlink:href="DA5E7F21.png"  transform="matrix(1 0 0 1 615 167)">
		</image>
		<g>
			<g>
				<polygon style="fill:none;stroke:#D62121;stroke-miterlimit:10;" points="684.646,197.201 736.492,183.478 715.144,209.4 				
					"/>
				<polygon style="fill:#D62121;" points="731,187 691,197.588 714.529,207 				"/>
				<polygon style="fill:none;stroke:#D62121;stroke-miterlimit:10;" points="631.508,183.478 683.353,197.201 652.856,209.4 				
					"/>
				<polygon style="fill:#D62121;" points="637,187 677,197.588 653.471,207 				"/>
			</g>
		</g>
	</g>
</g>
<g id="Layer_1">
</g>
<g id="Layer_4">
	<path d="M680,469.5C680,412.891,508.109,367,451.5,367S361,403.391,361,460L680,469.5z"/>
	<path d="M610,480.5C610,423.891,825.391,352,882,352s75-10.609,75,46l-110.511,79.511L610,480.5z"/>
</g>
<g id="Layer_2">
	<g>
		<path style="fill:#30294A;" d="M1005.701,401.59c-4.783,0-8.674-3.892-8.674-8.675s3.891-8.674,8.674-8.674
			c3.137,0,11.749,2.056,11.749,8.674C1017.45,399.534,1008.838,401.59,1005.701,401.59z"/>
		<path style="fill:#F94940;" d="M1005.701,399.59c-3.68,0-6.674-2.994-6.674-6.675c0-3.68,2.994-6.674,6.674-6.674
			c1.515,0,9.749,1.23,9.749,6.674C1015.45,398.359,1007.216,399.59,1005.701,399.59z"/>
		<path style="fill:#FBB539;" d="M1005.701,397.59c-2.577,0-4.674-2.097-4.674-4.675c0-2.577,2.097-4.674,4.674-4.674
			c0.92,0,7.749,0.987,7.749,4.674C1013.45,396.603,1006.621,397.59,1005.701,397.59z"/>
		<path style="fill:#FCE6A8;" d="M1011.451,392.915c0,1.477-4.273,2.674-5.749,2.674c-1.477,0-2.674-1.197-2.674-2.674
			s1.197-2.674,2.674-2.674C1007.178,390.241,1011.451,391.439,1011.451,392.915z"/>
	</g>
</g>
<g id="outline" style="display:none;">
	<g style="display:inline;">
		<g>
			<ellipse cx="680.202" cy="523.5" rx="345.806" ry="22.692"/>
			<path d="M680.202,501.308c92.48,0,179.421,2.412,244.808,6.791c95.652,6.406,100.497,13.954,100.497,15.402
				s-4.845,8.996-100.497,15.402c-65.387,4.379-152.328,6.791-244.808,6.791s-179.421-2.412-244.808-6.791
				c-95.652-6.406-100.497-13.954-100.497-15.402s4.845-8.996,100.497-15.402C500.781,503.719,587.722,501.308,680.202,501.308
				 M680.202,500.308c-191.259,0-346.306,10.384-346.306,23.192c0,12.809,155.046,23.192,346.306,23.192
				s346.306-10.384,346.306-23.192C1026.508,510.691,871.461,500.308,680.202,500.308L680.202,500.308z"/>
		</g>
		<g>
			<g>
				<polygon points="908.688,290.06 912.529,286.617 923.839,289.145 919.474,293 				"/>
				<path d="M912.672,287.161l10.101,2.257l-3.428,3.029l-9.639-2.628L912.672,287.161 M912.388,286.073l-4.718,4.228l11.933,3.253
					l5.302-4.684L912.388,286.073L912.388,286.073z"/>
			</g>
			<g>
				<polygon points="920.634,293.301 927.833,286.849 941.909,287.135 943.412,287.217 933.08,296.477 				"/>
				<path d="M928.02,287.353l13.844,0.28l0.315,0.017l-9.235,8.276l-11.279-2.878L928.02,287.353 M927.646,286.345l-8.044,7.208
					l13.612,3.473l11.43-10.243l-2.726-0.149L927.646,286.345L927.646,286.345z"/>
			</g>
			<line style="stroke:#000000;stroke-miterlimit:10;" x1="938.646" y1="288.567" x2="931.429" y2="295.034"/>
			<line style="stroke:#000000;stroke-miterlimit:10;" x1="930.142" y1="288.013" x2="925.3" y2="292.353"/>
		</g>
		<g>
			<g>
				<path d="M983.01,393.604l-1.674-5.357l19.43,0.372l0.09-0.034c0.916-0.347,7.754-2.966,10.723-5.101
					c-0.761,2.906-3.16,9.061-10.012,10.476L983.01,393.604z"/>
				<path d="M1010.742,384.622c-1.01,3.023-3.467,7.623-9.223,8.836l-18.14-0.347l-1.359-4.352l18.639,0.357l0.193,0.004l0.18-0.068
					C1002.863,388.359,1007.683,386.467,1010.742,384.622 M1012.394,382.014c-1.094,2.088-11.715,6.102-11.715,6.102l-20.026-0.383
					l1.987,6.364l18.972,0.363C1011.138,392.534,1012.394,382.014,1012.394,382.014L1012.394,382.014z"/>
			</g>
			<g>
				<path d="M1005.548,390.345l-23.312-1.139l-0.365-1.153l19.314,0.396l0.088-0.032c2.1-0.771,4.153-1.687,6.104-2.725
					c1.494-0.794,2.953-1.673,4.35-2.619c-0.458,2.293-1.929,7.272-6.076,7.272L1005.548,390.345z"/>
				<path d="M1010.954,384.181c-0.646,2.35-2.12,5.665-5.303,5.665l-0.065,0l-22.979-1.122l-0.05-0.157l10.004,0.206l8.519,0.175
					l0.188,0.004l0.177-0.065c2.116-0.776,4.191-1.702,6.167-2.752C1008.75,385.529,1009.868,384.876,1010.954,384.181
					 M1012.408,381.992c-1.478,1.056-3.23,2.177-5.265,3.259c-2.171,1.155-4.221,2.029-6.041,2.696
					c-6.639-0.137-13.279-0.273-19.918-0.41l0.681,2.151l23.674,1.156c0.038,0.001,0.075,0.001,0.113,0.001
					C1011.536,390.846,1012.408,381.992,1012.408,381.992L1012.408,381.992z"/>
			</g>
		</g>
		<g>
			<g>
				<path d="M999.547,379.997l-1.144-3.606h13.293l0.093-0.039c0.968-0.407,4.944-2.118,7.049-3.625
					c-0.577,2.213-2.208,6.221-6.57,7.27H999.547z"/>
				<path d="M1017.976,373.879c-0.766,2.095-2.389,4.78-5.769,5.618h-12.294l-0.826-2.606h12.509h0.202l0.186-0.078
					C1013.397,376.218,1015.995,375.07,1017.976,373.879 M1019.629,371.284c-0.73,1.535-8.033,4.606-8.033,4.606H997.72l1.461,4.606
					h13.145C1018.898,378.961,1019.629,371.284,1019.629,371.284L1019.629,371.284z"/>
			</g>
			<g>
				<path d="M998.599,377.004l-0.194-0.613l13.443,0.021l0.093-0.038c1.469-0.607,2.909-1.328,4.28-2.14
					c0.938-0.556,1.854-1.163,2.737-1.81c-0.351,1.815-1.354,5.09-4.039,5.096L998.599,377.004z"/>
				<path d="M1018.151,373.603c-0.485,1.602-1.428,3.417-3.208,3.418l-3.459-0.109l0.264,0l0.199,0l0.184-0.076
					c1.493-0.618,2.955-1.349,4.344-2.172C1017.042,374.328,1017.602,373.973,1018.151,373.603 M1019.629,371.284
					c-1.026,0.813-2.245,1.679-3.663,2.519c-1.513,0.897-2.945,1.582-4.217,2.108c-4.676-0.007-9.352-0.014-14.028-0.021
					l0.508,1.603l16.683,0.527C1019.128,378.02,1019.629,371.284,1019.629,371.284L1019.629,371.284z"/>
			</g>
		</g>
		<g>
			<polygon points="1010.566,367.139 1016.458,361.365 1066.71,355.354 1054.925,367.139 			"/>
			<path d="M1065.335,356.022l-10.617,10.617h-42.927l4.895-4.797L1065.335,356.022 M1068.085,354.686l-51.856,6.204l-6.887,6.75
				h45.79L1068.085,354.686L1068.085,354.686z"/>
		</g>
		<g>
			<polygon points="1016.461,361.365 1066.66,355.359 1060.032,361.716 1014.066,363.759 			"/>
			<path d="M1065.235,356.034l-5.413,5.191l-44.491,1.977l1.361-1.361L1065.235,356.034 M1068.085,354.686l-51.856,6.204
				l-3.426,3.426l47.439-2.108L1068.085,354.686L1068.085,354.686z"/>
		</g>
		<g>
			<path d="M567.59,341.522c-1.132-0.905-10.222-8.5-8.946-17.808l67.471-52.693c22.81-3.484,45.982-5.892,68.873-7.158
				c12.86-0.711,26.371-1.072,40.156-1.072c13.7,0,27.482,0.361,40.964,1.072c6.107,0.322,18.859,1.271,44.266,3.162
				c17.784,1.323,35.544,2.673,52.783,4.013c3.795,1.709,125.406,56.34,170.793,63.589l-270.61,8.104l-188,0L567.59,341.522z"/>
			<path d="M735.149,263.291c13.688,0,27.46,0.36,40.932,1.071c6.087,0.321,18.842,1.27,44.255,3.161
				c17.659,1.314,35.387,2.662,52.695,4.006c6.993,3.155,117.888,52.989,166.102,62.742l-265.778,7.96l-187.997,0.001l-17.576-1.198
				c-1.482-1.211-9.717-8.372-8.668-17.052l67.206-52.486c22.756-3.471,45.868-5.871,68.696-7.133
				c12.851-0.711,26.353-1.071,40.132-1.071H735.149 M735.145,262.291c-18.857,0-33.073,0.679-40.184,1.073
				c-18.825,1.041-42.231,3.082-69.05,7.183l-67.732,52.897c-1.581,10.384,9.224,18.567,9.224,18.567l17.921,1.222l188.031-0.001
				l278.061-8.327c-38.174-1.142-178.133-64.358-178.133-64.358c-12.082-0.939-30.421-2.349-52.872-4.02
				c-25.452-1.894-38.179-2.841-44.276-3.163C761.01,262.566,747.14,262.291,735.145,262.291L735.145,262.291z M1054.971,334.798
				l-3.555,0.106c0.347,0.01,0.686,0.016,1.016,0.016C1053.347,334.92,1054.192,334.88,1054.971,334.798L1054.971,334.798z"/>
		</g>
		<g>
			<polygon points="347.084,474.156 347.084,468.9 351.876,464.477 351.876,457.112 340.11,457.112 340.11,448.679 327.588,448.679 
				327.588,431.23 367.087,431.23 367.087,474.156 			"/>
			<path d="M366.587,431.73v41.926h-19.002v-4.537l4.47-4.127l0.322-0.297v-0.438v-6.646v-1h-1H340.61v-7.434v-1h-1h-11.522V431.73
				H366.587 M367.587,430.73h-40.499v18.449h12.522v8.434h11.766v6.646l-4.792,4.424v5.975h21.002V430.73L367.587,430.73z"/>
		</g>
		<g>
			<polygon points="307.192,441.3 296.902,432.912 287.511,403.85 293.705,385.268 305.689,381.273 332.718,441.3 			"/>
			<path d="M305.419,381.89l26.525,58.909H307.37l-10.037-8.182l-9.296-28.765l6.063-18.19L305.419,381.89 M305.96,380.656
				l-12.65,4.217l-6.325,18.976l9.488,29.358l10.542,8.593h26.477L305.96,380.656L305.96,380.656z"/>
		</g>
		<path style="stroke:#000000;stroke-miterlimit:10;" d="M334.459,441.536"/>
		<g>
			<path d="M310.626,436.81l-12.598-45.673c0.117-1.949,5.77-4.35,9.618-5.52l23.717,52.673L310.626,436.81z"/>
			<path d="M307.371,386.226l23.192,51.506l-19.549-1.396l-12.479-45.243C298.751,389.73,303.068,387.581,307.371,386.226
				 M307.922,385.014c0,0-10.396,3.021-10.396,6.184l12.711,46.086l21.925,1.566L307.922,385.014L307.922,385.014z"/>
		</g>
		<g>
			<rect x="529.951" y="437.028" width="45.385" height="7.434"/>
			<path d="M574.836,437.528v6.434h-44.385v-6.434H574.836 M575.836,436.528h-46.385v8.434h46.385V436.528L575.836,436.528z"/>
		</g>
		<g>
			<polygon points="578.8,447.205 578.8,437.028 677.594,437.028 677.594,440.128 755.175,440.128 748.099,447.205 			"/>
			<path d="M677.094,437.528v2.1v1h1h58.325h17.549l-6.077,6.077H636.375H579.3v-9.177H677.094 M678.094,436.528H578.3v11.177
				h58.075h111.93l8.077-8.077h-19.963h-58.325V436.528L678.094,436.528z"/>
		</g>
		<path style="stroke:#000000;stroke-miterlimit:10;" d="M748.725,450.233"/>
		<g>
			<polygon points="548.927,459.11 548.927,451.983 584.881,451.983 588.24,448.625 748.458,448.625 755.447,459.11 			"/>
			<path d="M748.19,449.125l6.324,9.486H549.427v-6.127h35.247h0.414l0.293-0.293l3.066-3.066H748.19 M748.725,448.125H588.033
				l-3.359,3.359h-36.247v8.127h207.955L748.725,448.125L748.725,448.125z"/>
		</g>
		<g>
			<g>
				<path d="M548.269,450.787c-1.381,0-2.504-1.123-2.504-2.504v-6.642c0-1.381,1.124-2.505,2.504-2.505h28.122v11.65H548.269z"/>
				<path d="M575.89,439.637v10.65h-27.622c-1.105,0-2.004-0.899-2.004-2.004v-6.641c0-1.105,0.899-2.004,2.004-2.004H575.89
					 M576.89,438.637h-28.622c-1.659,0-3.004,1.345-3.004,3.004v6.641c0,1.659,1.345,3.004,3.004,3.004h28.622V438.637
					L576.89,438.637z"/>
			</g>
			<g>
				<path d="M579.499,450.787v-11.65h3.284c1.707,0,3.095,1.389,3.095,3.096v5.459c0,1.707-1.389,3.096-3.095,3.096H579.499z"/>
				<path d="M582.783,439.637c1.431,0,2.595,1.164,2.595,2.595v5.46c0,1.431-1.164,2.595-2.595,2.595h-2.784v-10.65H582.783
					 M582.783,438.637h-3.784v12.65h3.784c1.986,0,3.595-1.61,3.595-3.595v-5.46C586.378,440.247,584.768,438.637,582.783,438.637
					L582.783,438.637z"/>
			</g>
		</g>
		<g>
			<path d="M550.038,448.656c-1.222-0.165-2.167-1.215-2.167-2.481v-1.91c0-1.267,0.945-2.316,2.167-2.481V448.656z"/>
			<path d="M549.537,442.444v5.552c-0.688-0.318-1.167-1.015-1.167-1.821v-1.909C548.37,443.458,548.849,442.761,549.537,442.444
				 M550.537,441.26h-0.163c-1.659,0-3.005,1.345-3.005,3.004v1.909c0,1.659,1.345,3.004,3.005,3.004h0.163V441.26L550.537,441.26z"
				/>
		</g>
		<g>
			<rect x="554.198" y="441.245" width="4.271" height="8.488"/>
			<path d="M557.969,441.745v7.488h-3.271v-7.488H557.969 M558.969,440.745h-5.271v9.488h5.271V440.745L558.969,440.745z"/>
		</g>
		<g>
			<rect x="563.686" y="441.245" width="4.271" height="8.488"/>
			<path d="M567.456,441.745v7.488h-3.271v-7.488H567.456 M568.456,440.745h-5.271v9.488h5.271V440.745L568.456,440.745z"/>
		</g>
		<g>
			<rect x="572.119" y="441.245" width="4.271" height="8.488"/>
			<path d="M575.89,441.745v7.488h-3.271v-7.488H575.89 M576.89,440.745h-5.271v9.488h5.271V440.745L576.89,440.745z"/>
		</g>
		<g>
			<path d="M580.946,441.474c1.222,0.165,2.167,1.216,2.167,2.482v1.909c0,1.267-0.945,2.317-2.167,2.482V441.474z"/>
			<path d="M581.446,442.135c0.688,0.318,1.167,1.015,1.167,1.821v1.909c0,0.807-0.479,1.503-1.167,1.821V442.135 M580.609,440.951
				h-0.163v7.918h0.163c1.659,0,3.004-1.345,3.004-3.004v-1.909C583.613,442.297,582.268,440.951,580.609,440.951L580.609,440.951z"
				/>
		</g>
		<g>
			<rect x="576.863" y="474.452" width="189.811" height="3.217"/>
			<path d="M766.174,474.953v2.217H577.363v-2.217H766.174 M767.174,473.953H576.363v4.217h190.811V473.953L767.174,473.953z"/>
		</g>
		<g>
			<rect x="769.782" y="472.344" width="74.902" height="6.38"/>
			<path d="M844.185,472.844v5.379h-73.903v-5.379H844.185 M845.185,471.844h-75.903v7.379h75.903V471.844L845.185,471.844z"/>
		</g>
		<g>
			<rect x="817.222" y="464.879" width="19.029" height="6.38"/>
			<path d="M835.751,465.379v5.379h-18.03v-5.379H835.751 M836.751,464.379h-20.03v7.379h20.03V464.379L836.751,464.379z"/>
		</g>
		<g>
			<polygon points="570.538,473.452 570.538,455.482 822.219,458.629 814.313,473.452 			"/>
			<path d="M571.038,455.99l250.353,3.129l-7.378,13.834H571.038V455.99 M570.038,454.977v18.976h244.575l8.434-15.813
				L570.038,454.977L570.038,454.977z"/>
		</g>
		<path style="stroke:#000000;stroke-miterlimit:10;" d="M1049.173,329"/>
		<path style="stroke:#000000;stroke-miterlimit:10;" d="M885.772,291.048"/>
		<g>
			<polygon points="586.685,485.482 582.845,477.925 758.318,477.925 753.872,485.482 			"/>
			<path d="M757.444,478.425l-3.858,6.558H586.992l-3.332-6.558H757.444 M759.192,477.425H582.03l4.348,8.558h167.78
				L759.192,477.425L759.192,477.425z"/>
		</g>
		<polyline style="stroke:#000000;stroke-miterlimit:10;" points="682.194,434.866 570.038,434.866 570.038,348.18 579.457,339.015 
			779.824,339.015 		"/>
		<path style="stroke:#000000;stroke-miterlimit:10;" d="M770.192,339.541l4.283-55.027c0,0,99.758,41.572,93.375,40.269"/>
		<g>
			<polygon points="300.071,430.977 291.724,403.848 295.392,391.927 308.189,438.192 			"/>
			<path d="M295.367,393.71l11.889,42.984l-6.748-5.998l-8.261-26.848L295.367,393.71 M295.409,390.601
				c-0.072,0-0.144,0.042-0.17,0.126l-4.021,13.069c-0.01,0.034-0.01,0.071,0,0.105l8.403,27.309
				c0.01,0.031,0.028,0.059,0.052,0.081l8.999,7.999c0.036,0.032,0.077,0.046,0.117,0.046c0.108,0,0.208-0.102,0.173-0.227
				l-13.381-48.377C295.557,390.645,295.483,390.601,295.409,390.601L295.409,390.601z"/>
		</g>
		<path style="stroke:#000000;stroke-miterlimit:10;" d="M975.954,402.91"/>
		<path style="stroke:#000000;stroke-miterlimit:10;" d="M975.32,402.91"/>
		<path style="stroke:#000000;stroke-miterlimit:10;" d="M752.942,259.422"/>
		<g>
			<rect x="586.351" y="342.677" width="183.485" height="2.163"/>
			<path d="M769.336,343.177v1.163H586.851v-1.163H769.336 M770.336,342.177H585.851v3.163h184.485V342.177L770.336,342.177z"/>
		</g>
		<g>
			<circle cx="599.028" cy="458.667" r="5.825"/>
			<path d="M599.028,453.341c2.936,0,5.325,2.389,5.325,5.325s-2.389,5.325-5.325,5.325s-5.325-2.389-5.325-5.325
				S596.092,453.341,599.028,453.341 M599.028,452.341c-3.493,0-6.325,2.832-6.325,6.325s2.832,6.325,6.325,6.325
				c3.493,0,6.325-2.832,6.325-6.325S602.522,452.341,599.028,452.341L599.028,452.341z"/>
		</g>
		<g>
			<g>
				<polygon points="1048.646,329.527 1057.58,329.551 1057.58,330.358 1049.173,330.444 1048.412,329.985 				"/>
				<polygon points="1048.646,329.527 1048.412,329.985 1049.173,330.444 1057.58,330.358 1057.58,329.551 1048.646,329.527 				"/>
			</g>
			<path style="stroke:#000000;stroke-miterlimit:10;" d="M1057.58,329.551l4.173-0.075l0.251-0.005c0,0-4.097,1.721-4.511,0.888"/>
		</g>
		<g>
			<path d="M918.153,518.256c-37.799,0-68.551-30.751-68.551-68.55s30.752-68.55,68.551-68.55s68.55,30.751,68.55,68.55
				S955.952,518.256,918.153,518.256z"/>
			<path d="M918.153,381.656c37.523,0,68.05,30.527,68.05,68.05s-30.527,68.05-68.05,68.05c-37.523,0-68.05-30.527-68.05-68.05
				S880.63,381.656,918.153,381.656 M918.153,380.656c-38.135,0-69.05,30.915-69.05,69.05s30.915,69.05,69.05,69.05
				c38.135,0,69.05-30.915,69.05-69.05S956.289,380.656,918.153,380.656L918.153,380.656z"/>
		</g>
		<g>
			<circle cx="918.979" cy="449.706" r="63.279"/>
			<path d="M918.979,386.927c34.617,0,62.779,28.163,62.779,62.779s-28.163,62.779-62.779,62.779
				c-34.617,0-62.779-28.163-62.779-62.779S884.362,386.927,918.979,386.927 M918.979,385.927
				c-35.224,0-63.779,28.555-63.779,63.779s28.555,63.779,63.779,63.779c35.224,0,63.779-28.555,63.779-63.779
				S954.203,385.927,918.979,385.927L918.979,385.927z"/>
		</g>
		<g>
			<path d="M918.716,486.366c-20.36,0-36.925-16.563-36.925-36.924s16.564-36.924,36.925-36.924s36.924,16.563,36.924,36.924
				S939.076,486.366,918.716,486.366z"/>
			<path d="M918.715,413.018c20.084,0,36.424,16.34,36.424,36.424s-16.34,36.424-36.424,36.424
				c-20.084,0-36.424-16.34-36.424-36.424S898.631,413.018,918.715,413.018 M918.715,412.018c-20.669,0-37.424,16.755-37.424,37.424
				s16.755,37.424,37.424,37.424c20.669,0,37.424-16.755,37.424-37.424S939.384,412.018,918.715,412.018L918.715,412.018z"/>
		</g>
		<g>
			<path d="M919.11,475.561c-14.329,0-25.986-11.657-25.986-25.986s11.657-25.987,25.986-25.987s25.987,11.658,25.987,25.987
				S933.439,475.561,919.11,475.561z"/>
			<path d="M919.111,424.087c14.053,0,25.487,11.433,25.487,25.487s-11.433,25.487-25.487,25.487
				c-14.054,0-25.487-11.433-25.487-25.487S905.057,424.087,919.111,424.087 M919.111,423.087
				c-14.628,0-26.487,11.859-26.487,26.487c0,14.628,11.859,26.487,26.487,26.487c14.628,0,26.487-11.859,26.487-26.487
				C945.598,434.946,933.739,423.087,919.111,423.087L919.111,423.087z"/>
		</g>
		<g>
			<circle cx="919.292" cy="449.92" r="9.646"/>
			<path d="M919.292,440.773c5.044,0,9.147,4.103,9.147,9.147s-4.103,9.147-9.147,9.147s-9.147-4.103-9.147-9.147
				S914.248,440.773,919.292,440.773 M919.292,439.773c-5.604,0-10.147,4.543-10.147,10.147s4.543,10.147,10.147,10.147
				s10.147-4.543,10.147-10.147S924.896,439.773,919.292,439.773L919.292,439.773z"/>
		</g>
		<g>
			<g>
				<path d="M919.506,434.975c-1.468,0-2.662-1.194-2.662-2.663c0-1.468,1.194-2.662,2.662-2.662c1.469,0,2.663,1.194,2.663,2.662
					C922.169,433.78,920.975,434.975,919.506,434.975z"/>
				<path d="M919.506,430.149c1.192,0,2.163,0.97,2.163,2.163s-0.97,2.163-2.163,2.163c-1.193,0-2.163-0.97-2.163-2.163
					S918.314,430.149,919.506,430.149 M919.506,429.149c-1.747,0-3.163,1.416-3.163,3.163c0,1.747,1.416,3.163,3.163,3.163
					c1.747,0,3.163-1.416,3.163-3.163C922.669,430.565,921.253,429.149,919.506,429.149L919.506,429.149z"/>
			</g>
			<g>
				<path d="M929.178,438.024c-0.547,0-1.074-0.167-1.524-0.481c-0.583-0.408-0.972-1.019-1.095-1.719
					c-0.124-0.7,0.033-1.407,0.44-1.989c0.498-0.711,1.314-1.136,2.185-1.136c0.547,0,1.074,0.167,1.524,0.481
					c0.583,0.408,0.972,1.019,1.095,1.719c0.124,0.7-0.033,1.407-0.44,1.989C930.864,437.6,930.048,438.024,929.178,438.024z"/>
				<path d="M929.184,433.199L929.184,433.199c0.444,0,0.872,0.135,1.237,0.391c0.473,0.331,0.789,0.827,0.889,1.396
					c0.1,0.569-0.027,1.143-0.358,1.616c-0.404,0.578-1.068,0.922-1.774,0.922c-0.444,0-0.872-0.135-1.238-0.391
					c-0.977-0.684-1.215-2.035-0.531-3.012C927.814,433.544,928.477,433.199,929.184,433.199 M929.183,432.199
					c-0.997,0-1.978,0.47-2.593,1.349c-1.002,1.431-0.654,3.403,0.777,4.405c0.552,0.387,1.185,0.572,1.811,0.572
					c0.997,0,1.978-0.47,2.593-1.349c1.002-1.431,0.654-3.403-0.777-4.405C930.443,432.385,929.81,432.199,929.183,432.199
					L929.183,432.199z"/>
			</g>
			<g>
				<path d="M935.356,446.073c-1.115,0-2.121-0.704-2.503-1.753c-0.243-0.668-0.211-1.391,0.09-2.036
					c0.3-0.645,0.834-1.133,1.502-1.376c0.295-0.107,0.602-0.161,0.911-0.161c1.115,0,2.12,0.704,2.502,1.752
					c0.243,0.669,0.212,1.392-0.089,2.036s-0.835,1.134-1.503,1.377C935.973,446.02,935.666,446.073,935.356,446.073z"/>
				<path d="M935.356,441.246L935.356,441.246c0.906,0,1.722,0.572,2.032,1.424c0.408,1.121-0.172,2.364-1.293,2.772
					c-0.239,0.087-0.488,0.131-0.739,0.131c-0.906,0-1.722-0.572-2.032-1.424c-0.198-0.543-0.172-1.13,0.072-1.654
					s0.677-0.921,1.22-1.118C934.856,441.291,935.104,441.246,935.356,441.246 M935.356,440.246c-0.359,0-0.724,0.062-1.081,0.192
					c-1.641,0.597-2.488,2.412-1.89,4.054c0.467,1.284,1.68,2.082,2.972,2.082c0.359,0,0.724-0.062,1.081-0.192
					c1.641-0.597,2.488-2.412,1.89-4.054C937.86,441.044,936.648,440.246,935.356,440.246L935.356,440.246z"/>
			</g>
			<g>
				<path d="M935.801,456.208c-0.232,0-0.465-0.03-0.69-0.092c-0.688-0.184-1.262-0.624-1.617-1.24s-0.45-1.334-0.266-2.021
					c0.311-1.163,1.367-1.975,2.569-1.975c0.231,0,0.464,0.03,0.69,0.092c0.688,0.184,1.262,0.624,1.617,1.24
					s0.45,1.334,0.266,2.021C938.059,455.396,937.002,456.208,935.801,456.208z"/>
				<path d="M935.797,451.381L935.797,451.381c0.188,0,0.377,0.025,0.562,0.074c1.152,0.309,1.838,1.497,1.529,2.649
					c-0.253,0.944-1.111,1.604-2.087,1.604c-0.188,0-0.377-0.025-0.562-0.074c-1.152-0.309-1.838-1.497-1.529-2.649
					C933.963,452.04,934.821,451.381,935.797,451.381 M935.797,450.381c-1.396,0-2.674,0.932-3.053,2.345
					c-0.452,1.687,0.549,3.421,2.236,3.873c0.274,0.073,0.55,0.109,0.821,0.109c1.396,0,2.674-0.932,3.053-2.345
					c0.452-1.687-0.549-3.421-2.236-3.873C936.343,450.416,936.068,450.381,935.797,450.381L935.797,450.381z"/>
			</g>
			<g>
				<path d="M930.35,464.763c-0.79,0-1.534-0.347-2.041-0.951c-0.943-1.125-0.797-2.808,0.328-3.752
					c0.479-0.401,1.086-0.622,1.71-0.622c0.79,0,1.534,0.347,2.041,0.951c0.943,1.124,0.796,2.807-0.328,3.751
					C931.581,464.541,930.974,464.763,930.35,464.763z"/>
				<path d="M930.347,459.937L930.347,459.937c0.642,0,1.246,0.282,1.658,0.773c0.371,0.443,0.548,1.003,0.498,1.579
					c-0.05,0.575-0.322,1.097-0.764,1.468c-0.389,0.326-0.882,0.506-1.388,0.506c-0.642,0-1.246-0.282-1.658-0.773
					c-0.766-0.914-0.647-2.28,0.267-3.047C929.347,460.117,929.84,459.937,930.347,459.937 M930.346,458.937
					c-0.717,0-1.439,0.243-2.031,0.74c-1.338,1.123-1.513,3.118-0.39,4.456c0.626,0.746,1.522,1.13,2.424,1.13
					c0.717,0,1.439-0.243,2.031-0.74c1.338-1.123,1.513-3.118,0.39-4.456C932.145,459.321,931.249,458.937,930.346,458.937
					L930.346,458.937z"/>
			</g>
			<g>
				<path d="M920.973,468.646c-1.366,0-2.53-1.068-2.649-2.432c-0.128-1.463,0.958-2.757,2.421-2.885
					c0.079-0.007,0.157-0.011,0.235-0.011c1.366,0,2.53,1.068,2.649,2.432c0.128,1.463-0.958,2.757-2.421,2.885
					C921.129,468.642,921.051,468.646,920.973,468.646z"/>
				<path d="M920.98,463.819c1.109,0,2.054,0.867,2.15,1.974c0.104,1.188-0.778,2.239-1.966,2.343
					c-0.064,0.006-0.129,0.008-0.192,0.008c-1.109,0-2.054-0.867-2.151-1.974c-0.05-0.575,0.126-1.136,0.498-1.579
					c0.371-0.443,0.893-0.714,1.468-0.764C920.852,463.822,920.916,463.819,920.98,463.819 M920.98,462.819
					c-0.092,0-0.186,0.004-0.279,0.012c-1.74,0.152-3.027,1.686-2.875,3.426c0.144,1.646,1.525,2.887,3.147,2.887
					c0.092,0,0.186-0.004,0.279-0.012c1.74-0.152,3.027-1.686,2.875-3.426C923.983,464.06,922.602,462.819,920.98,462.819
					L920.98,462.819z"/>
			</g>
			<g>
				<path d="M911.069,466.449c-0.464,0-0.924-0.123-1.328-0.356c-1.271-0.735-1.709-2.366-0.976-3.638
					c0.475-0.821,1.359-1.332,2.31-1.332c0.464,0,0.923,0.124,1.328,0.357c1.271,0.734,1.709,2.365,0.976,3.637
					C912.903,465.938,912.019,466.449,911.069,466.449z"/>
				<path d="M911.076,461.623L911.076,461.623c0.376,0,0.749,0.1,1.078,0.29c0.5,0.289,0.858,0.755,1.008,1.313
					c0.15,0.558,0.073,1.141-0.216,1.641c-0.385,0.667-1.104,1.082-1.876,1.082c-0.377,0-0.749-0.1-1.078-0.29
					c-1.033-0.596-1.388-1.922-0.792-2.954C909.585,462.038,910.304,461.623,911.076,461.623 M911.075,460.623
					c-1.093,0-2.156,0.567-2.742,1.582c-0.873,1.513-0.355,3.447,1.158,4.32c0.498,0.288,1.042,0.424,1.578,0.424
					c1.093,0,2.156-0.567,2.742-1.582c0.873-1.513,0.355-3.447-1.158-4.32C912.156,460.76,911.612,460.623,911.075,460.623
					L911.075,460.623z"/>
			</g>
			<g>
				<path d="M904.222,458.971c-1.032,0-1.98-0.604-2.416-1.538c-0.62-1.331-0.043-2.918,1.288-3.539
					c0.356-0.166,0.733-0.25,1.123-0.25c1.032,0,1.979,0.604,2.415,1.538c0.301,0.645,0.332,1.368,0.089,2.036
					c-0.243,0.669-0.731,1.202-1.376,1.503C904.988,458.887,904.61,458.971,904.222,458.971z"/>
				<path d="M904.217,454.144L904.217,454.144c0.838,0,1.608,0.49,1.962,1.249c0.504,1.081,0.035,2.37-1.046,2.874
					c-0.289,0.135-0.596,0.203-0.912,0.203c-0.838,0-1.608-0.49-1.962-1.249c-0.504-1.081-0.035-2.37,1.046-2.874
					C903.594,454.212,903.901,454.144,904.217,454.144 M904.217,453.144c-0.447,0-0.902,0.095-1.335,0.297
					c-1.583,0.738-2.268,2.62-1.53,4.203c0.537,1.151,1.677,1.827,2.868,1.827c0.447,0,0.902-0.095,1.334-0.297
					c1.583-0.738,2.268-2.62,1.53-4.203C906.549,453.82,905.408,453.144,904.217,453.144L904.217,453.144z"/>
			</g>
			<g>
				<path d="M902.899,448.913c-0.154,0-0.31-0.014-0.467-0.041c-1.445-0.255-2.414-1.639-2.16-3.085
					c0.226-1.274,1.326-2.2,2.618-2.2c0.154,0,0.31,0.014,0.467,0.041c1.445,0.255,2.414,1.638,2.16,3.084
					C905.292,447.987,904.191,448.913,902.899,448.913z"/>
				<path d="M902.892,444.087L902.892,444.087c0.126,0,0.253,0.011,0.379,0.033c1.174,0.207,1.961,1.331,1.754,2.505
					c-0.183,1.036-1.077,1.788-2.126,1.788c-0.126,0-0.254-0.011-0.379-0.033c-1.174-0.207-1.961-1.331-1.754-2.505
					C900.948,444.839,901.842,444.087,902.892,444.087 M902.891,443.087c-1.506,0-2.84,1.08-3.111,2.614
					c-0.303,1.72,0.845,3.36,2.565,3.664c0.186,0.033,0.37,0.049,0.553,0.049c1.506,0,2.84-1.08,3.111-2.614
					c0.303-1.72-0.845-3.36-2.565-3.664C903.258,443.103,903.074,443.087,902.891,443.087L902.891,443.087z"/>
			</g>
			<g>
				<path d="M907.579,439.915c-0.711,0-1.38-0.277-1.883-0.78c-1.038-1.038-1.038-2.728,0-3.766c0.503-0.503,1.172-0.78,1.883-0.78
					s1.38,0.277,1.883,0.78c1.038,1.038,1.038,2.728,0,3.766C908.959,439.638,908.29,439.915,907.579,439.915z"/>
				<path d="M907.579,435.089c0.578,0,1.121,0.225,1.529,0.633c0.408,0.408,0.633,0.952,0.633,1.529s-0.225,1.121-0.633,1.529
					c-0.408,0.408-0.952,0.633-1.529,0.633c-0.578,0-1.121-0.225-1.529-0.633c-0.843-0.843-0.843-2.215,0-3.058
					C906.458,435.314,907.001,435.089,907.579,435.089 M907.579,434.089c-0.809,0-1.619,0.309-2.236,0.926
					c-1.235,1.235-1.235,3.238,0,4.473c0.617,0.618,1.427,0.926,2.236,0.926s1.619-0.309,2.236-0.926
					c1.235-1.235,1.235-3.238,0-4.473C909.198,434.398,908.388,434.089,907.579,434.089L907.579,434.089z"/>
			</g>
		</g>
		<g>
			<g>
				<line style="stroke:#000000;stroke-miterlimit:10;" x1="921.087" y1="448.652" x2="924.25" y2="445.489"/>
				<line style="stroke:#000000;stroke-miterlimit:10;" x1="914.186" y1="454.657" x2="916.821" y2="452.021"/>
			</g>
			<g>
				<path d="M919.152,453.077c-1.664,0-3.018-1.354-3.018-3.018c0-1.663,1.354-3.017,3.018-3.017c1.663,0,3.017,1.354,3.017,3.017
					C922.169,451.724,920.815,453.077,919.152,453.077z"/>
				<path d="M919.152,447.543c1.388,0,2.517,1.129,2.517,2.517s-1.129,2.517-2.517,2.517c-1.388,0-2.517-1.129-2.517-2.517
					S917.764,447.543,919.152,447.543 M919.152,446.543c-1.942,0-3.517,1.574-3.517,3.517s1.574,3.517,3.517,3.517
					s3.517-1.574,3.517-3.517S921.094,446.543,919.152,446.543L919.152,446.543z"/>
			</g>
		</g>
		<g>
			<polygon points="321.047,431.087 304.362,388.864 309.31,387.538 329.709,435.912 			"/>
			<path d="M309.019,388.134l19.666,46.635l-7.238-4.032l-16.413-41.535L309.019,388.134 M309.602,386.943l-5.91,1.584l16.956,42.91
				l10.086,5.619L309.602,386.943L309.602,386.943z"/>
		</g>
		<g>
			<rect x="545.237" y="458.64" width="26.409" height="11.65"/>
			<path d="M571.146,459.14v10.65h-25.409v-10.65H571.146 M572.146,458.14h-27.409v12.65h27.409V458.14L572.146,458.14z"/>
		</g>
		<g>
			<path d="M306.144,378.925l-2.789-14.875l26.042-14.583c0.455-0.326,41.795-29.483,152.894-29.483
				c23.538,0,48.839,1.312,75.214,3.898c-0.656,2.244-2.023,9.929,8.109,14.535l0.085,0.039l17.579,1.034l0.461,5.996l-8.403,2.101
				v85.291l-58.037,1.036c-0.271-41.541-33.426-71.639-79.037-71.639c-43.598,0-79.099,35.29-79.367,78.769l-25.081,0.256
				L306.144,378.925z"/>
			<path d="M482.291,320.483c23.348,0,48.435,1.291,74.583,3.839c-0.678,2.906-1.201,10.126,8.533,14.55l0.169,0.077l0.186,0.011
				l17.05,1.003l0.395,5.14l-7.614,1.904l-0.757,0.189v0.781v71.686v12.722l-57.042,1.019c-0.533-41.57-33.815-71.63-79.532-71.63
				c-43.709,0-79.33,35.246-79.862,78.774l-24.262,0.247l-27.514-62.017l-2.712-14.465l18.964-10.62l5.051-2.829
				c0.938-0.525,1.481-0.829,1.794-1.049l0.019,0.026c0.101-0.073,10.37-7.42,34.204-14.674
				C385.951,328.466,424.347,320.483,482.291,320.483 M482.291,319.483c-112.608,0-153.139,29.547-153.139,29.547
				c0,0-9.253,5.182-26.355,14.759l2.866,15.286l27.828,62.725l25.903-0.264c0-43.355,35.493-78.764,78.868-78.764
				s78.538,28.294,78.538,71.648l59.035-1.054v-13.705v-71.686l8.434-2.108l-0.527-6.852l-17.921-1.054
				c-11.596-5.271-7.643-14.516-7.643-14.516C529.878,320.649,504.658,319.483,482.291,319.483L482.291,319.483z"/>
		</g>
		<g>
			<circle cx="437.437" cy="452.868" r="68.55"/>
			<path d="M437.437,384.818c37.523,0,68.05,30.527,68.05,68.05s-30.527,68.05-68.05,68.05s-68.05-30.527-68.05-68.05
				S399.914,384.818,437.437,384.818 M437.437,383.818c-38.135,0-69.05,30.915-69.05,69.05s30.915,69.05,69.05,69.05
				s69.05-30.915,69.05-69.05S475.572,383.818,437.437,383.818L437.437,383.818z"/>
		</g>
		<g>
			
				<ellipse transform="matrix(0.1602 -0.9871 0.9871 0.1602 -78.9601 812.9298)" cx="438.262" cy="452.868" rx="63.279" ry="63.279"/>
			<path d="M438.262,390.089c34.617,0,62.779,28.163,62.779,62.779c0,34.617-28.163,62.779-62.779,62.779
				s-62.779-28.163-62.779-62.779C375.483,418.252,403.646,390.089,438.262,390.089 M438.262,389.089
				c-35.224,0-63.779,28.555-63.779,63.779s28.555,63.779,63.779,63.779s63.779-28.555,63.779-63.779
				S473.487,389.089,438.262,389.089L438.262,389.089z"/>
		</g>
		<g>
			<path d="M437.999,489.529c-20.36,0-36.924-16.564-36.924-36.925s16.564-36.924,36.924-36.924
				c20.36,0,36.924,16.563,36.924,36.924S458.359,489.529,437.999,489.529z"/>
			<path d="M437.999,416.181c20.084,0,36.424,16.34,36.424,36.424s-16.34,36.424-36.424,36.424s-36.424-16.34-36.424-36.424
				S417.915,416.181,437.999,416.181 M437.999,415.181c-20.669,0-37.424,16.755-37.424,37.424c0,20.669,16.755,37.424,37.424,37.424
				c20.669,0,37.424-16.755,37.424-37.424C475.423,431.936,458.668,415.181,437.999,415.181L437.999,415.181z"/>
		</g>
		<g>
			<path d="M438.394,478.724c-14.329,0-25.987-11.658-25.987-25.987s11.658-25.986,25.987-25.986s25.987,11.657,25.987,25.986
				S452.723,478.724,438.394,478.724z"/>
			<path d="M438.394,427.25c14.053,0,25.487,11.433,25.487,25.487c0,14.053-11.433,25.487-25.487,25.487
				s-25.487-11.433-25.487-25.487C412.907,438.683,424.341,427.25,438.394,427.25 M438.394,426.25
				c-14.628,0-26.487,11.859-26.487,26.487c0,14.628,11.859,26.487,26.487,26.487c14.628,0,26.487-11.859,26.487-26.487
				C464.881,438.108,453.022,426.25,438.394,426.25L438.394,426.25z"/>
		</g>
		<g>
			<path d="M438.394,462.384c-5.319,0-9.646-4.328-9.646-9.647s4.328-9.646,9.646-9.646c5.319,0,9.647,4.327,9.647,9.646
				S443.713,462.384,438.394,462.384z"/>
			<path d="M438.394,443.59c5.044,0,9.147,4.103,9.147,9.147s-4.103,9.147-9.147,9.147s-9.147-4.103-9.147-9.147
				S433.351,443.59,438.394,443.59 M438.394,442.59c-5.604,0-10.147,4.543-10.147,10.147c0,5.604,4.543,10.147,10.147,10.147
				c5.604,0,10.147-4.543,10.147-10.147C448.541,447.133,443.998,442.59,438.394,442.59L438.394,442.59z"/>
		</g>
		<g>
			<g>
				<path d="M438.79,438.137c-1.468,0-2.663-1.194-2.663-2.662c0-1.469,1.194-2.663,2.663-2.663s2.663,1.194,2.663,2.663
					C441.452,436.942,440.258,438.137,438.79,438.137z"/>
				<path d="M438.79,433.312c1.192,0,2.163,0.97,2.163,2.163s-0.97,2.163-2.163,2.163s-2.163-0.97-2.163-2.163
					S437.597,433.312,438.79,433.312 M438.79,432.312c-1.747,0-3.163,1.416-3.163,3.163c0,1.747,1.416,3.163,3.163,3.163
					c1.747,0,3.163-1.416,3.163-3.163C441.952,433.728,440.536,432.312,438.79,432.312L438.79,432.312z"/>
			</g>
			<g>
				<path d="M448.462,441.188c-0.547,0-1.075-0.167-1.525-0.481c-0.583-0.408-0.972-1.019-1.095-1.719s0.033-1.407,0.441-1.989
					c0.498-0.712,1.315-1.137,2.185-1.137c0.547,0,1.074,0.167,1.524,0.481c0.583,0.408,0.971,1.019,1.095,1.72
					c0.124,0.7-0.033,1.407-0.441,1.989C450.147,440.763,449.331,441.188,448.462,441.188z"/>
				<path d="M448.467,436.362L448.467,436.362c0.444,0,0.872,0.135,1.237,0.391c0.473,0.331,0.789,0.827,0.889,1.396
					s-0.027,1.143-0.358,1.616c-0.404,0.578-1.068,0.922-1.774,0.922c-0.444,0-0.872-0.135-1.238-0.391
					c-0.977-0.684-1.215-2.035-0.531-3.012C447.097,436.707,447.76,436.362,448.467,436.362 M448.467,435.362
					c-0.997,0-1.978,0.47-2.593,1.349c-1.002,1.431-0.654,3.403,0.777,4.405c0.552,0.387,1.185,0.572,1.811,0.572
					c0.997,0,1.978-0.47,2.593-1.349c1.002-1.431,0.654-3.403-0.777-4.405C449.726,435.547,449.093,435.362,448.467,435.362
					L448.467,435.362z"/>
			</g>
			<g>
				<path d="M454.639,449.235c-1.115,0-2.12-0.704-2.502-1.752c-0.502-1.38,0.212-2.911,1.592-3.413
					c0.294-0.107,0.601-0.161,0.911-0.161c1.115,0,2.12,0.704,2.502,1.753c0.243,0.668,0.212,1.391-0.089,2.036
					c-0.3,0.645-0.834,1.133-1.502,1.376C455.256,449.182,454.949,449.235,454.639,449.235z"/>
				<path d="M454.64,444.409c0.905,0,1.722,0.572,2.032,1.424c0.408,1.121-0.172,2.364-1.293,2.772
					c-0.239,0.087-0.488,0.131-0.739,0.131c-0.906,0-1.722-0.572-2.032-1.424c-0.408-1.121,0.172-2.364,1.293-2.772
					C454.139,444.453,454.388,444.409,454.64,444.409 M454.639,443.409c-0.359,0-0.724,0.062-1.081,0.192
					c-1.641,0.597-2.488,2.412-1.89,4.054c0.467,1.284,1.68,2.082,2.972,2.082c0.359,0,0.724-0.062,1.081-0.192
					c1.641-0.597,2.488-2.412,1.89-4.054C457.144,444.206,455.931,443.409,454.639,443.409L454.639,443.409z"/>
			</g>
			<g>
				<path d="M455.084,459.37c-0.232,0-0.465-0.03-0.691-0.092c-0.687-0.184-1.261-0.624-1.617-1.24
					c-0.356-0.616-0.45-1.333-0.266-2.02c0.312-1.163,1.368-1.975,2.569-1.975c0.232,0,0.465,0.03,0.691,0.092
					c0.687,0.184,1.261,0.624,1.617,1.24c0.356,0.615,0.45,1.333,0.266,2.02C457.343,458.559,456.286,459.37,455.084,459.37z"/>
				<path d="M455.08,454.544L455.08,454.544c0.188,0,0.377,0.025,0.561,0.074c1.152,0.309,1.838,1.497,1.529,2.649
					c-0.253,0.944-1.111,1.604-2.087,1.604c-0.188,0-0.377-0.025-0.562-0.074c-0.558-0.149-1.024-0.507-1.313-1.008
					c-0.289-0.5-0.366-1.083-0.216-1.641C453.246,455.203,454.104,454.544,455.08,454.544 M455.08,453.544
					c-1.396,0-2.674,0.932-3.053,2.345c-0.452,1.687,0.549,3.421,2.236,3.873c0.274,0.073,0.55,0.109,0.821,0.109
					c1.396,0,2.674-0.932,3.053-2.345c0.452-1.687-0.549-3.421-2.236-3.873C455.626,453.579,455.351,453.544,455.08,453.544
					L455.08,453.544z"/>
			</g>
			<g>
				<path d="M449.633,467.925c-0.79,0-1.534-0.347-2.041-0.951c-0.458-0.545-0.675-1.235-0.613-1.943s0.396-1.351,0.941-1.808
					c0.479-0.401,1.086-0.623,1.71-0.623c0.79,0,1.534,0.347,2.042,0.951c0.457,0.545,0.675,1.235,0.613,1.943
					c-0.062,0.709-0.396,1.352-0.941,1.809C450.864,467.704,450.257,467.925,449.633,467.925z"/>
				<path d="M449.63,463.1L449.63,463.1c0.642,0,1.246,0.282,1.658,0.773c0.767,0.913,0.647,2.28-0.267,3.047
					c-0.389,0.326-0.882,0.506-1.388,0.506c-0.642,0-1.246-0.282-1.658-0.773c-0.371-0.443-0.548-1.003-0.498-1.579
					c0.05-0.575,0.322-1.097,0.764-1.468C448.63,463.28,449.124,463.1,449.63,463.1 M449.63,462.1c-0.717,0-1.439,0.243-2.031,0.74
					c-1.338,1.123-1.513,3.118-0.39,4.456c0.626,0.746,1.522,1.13,2.424,1.13c0.717,0,1.439-0.243,2.031-0.74
					c1.338-1.123,1.513-3.118,0.39-4.456C451.429,462.484,450.533,462.1,449.63,462.1L449.63,462.1z"/>
			</g>
			<g>
				<path d="M440.256,471.808c-1.366,0-2.53-1.068-2.649-2.432c-0.127-1.462,0.958-2.756,2.42-2.884
					c0.079-0.007,0.158-0.011,0.236-0.011c1.366,0,2.53,1.068,2.649,2.432c0.062,0.708-0.156,1.397-0.613,1.942
					s-1.099,0.879-1.808,0.941C440.413,471.804,440.333,471.808,440.256,471.808z"/>
				<path d="M440.264,466.982c1.109,0,2.054,0.867,2.15,1.974c0.05,0.575-0.126,1.136-0.498,1.579s-0.893,0.714-1.468,0.764
					c-0.064,0.006-0.129,0.008-0.192,0.008c-1.109,0-2.054-0.867-2.151-1.974c-0.05-0.575,0.126-1.136,0.498-1.579
					s0.893-0.714,1.468-0.764C440.136,466.984,440.2,466.982,440.264,466.982 M440.263,465.982c-0.092,0-0.186,0.004-0.279,0.012
					c-1.74,0.152-3.027,1.686-2.875,3.426c0.144,1.646,1.525,2.887,3.147,2.887c0.092,0,0.186-0.004,0.279-0.012
					c1.74-0.152,3.027-1.686,2.875-3.426C443.266,467.222,441.885,465.982,440.263,465.982L440.263,465.982z"/>
			</g>
			<g>
				<path d="M430.353,469.612c-0.464,0-0.924-0.124-1.329-0.357c-0.616-0.355-1.056-0.93-1.24-1.617
					c-0.184-0.687-0.09-1.404,0.266-2.021c0.474-0.821,1.358-1.331,2.308-1.331c0.464,0,0.924,0.123,1.329,0.356
					c0.616,0.355,1.057,0.93,1.241,1.617c0.184,0.687,0.09,1.404-0.266,2.021C432.188,469.102,431.303,469.612,430.353,469.612z"/>
				<path d="M430.359,464.786L430.359,464.786c0.376,0,0.749,0.1,1.078,0.29c1.033,0.596,1.388,1.921,0.792,2.954
					c-0.385,0.667-1.104,1.082-1.876,1.082c-0.377,0-0.749-0.1-1.078-0.29c-0.5-0.289-0.858-0.755-1.008-1.313
					c-0.15-0.558-0.073-1.141,0.216-1.641C428.868,465.2,429.587,464.786,430.359,464.786 M430.359,463.786
					c-1.093,0-2.156,0.567-2.742,1.582c-0.873,1.513-0.355,3.447,1.158,4.32c0.498,0.288,1.042,0.424,1.578,0.424
					c1.093,0,2.156-0.567,2.742-1.582c0.873-1.513,0.355-3.447-1.158-4.32C431.439,463.922,430.895,463.786,430.359,463.786
					L430.359,463.786z"/>
			</g>
			<g>
				<path d="M423.504,462.133c-1.031,0-1.979-0.604-2.415-1.537c-0.621-1.331-0.043-2.918,1.288-3.539
					c0.356-0.166,0.734-0.25,1.124-0.25c1.031,0,1.979,0.604,2.415,1.537c0.62,1.331,0.042,2.919-1.288,3.539
					C424.272,462.049,423.894,462.133,423.504,462.133z"/>
				<path d="M423.501,457.306L423.501,457.306c0.838,0,1.608,0.49,1.962,1.249c0.504,1.081,0.035,2.37-1.046,2.874
					c-0.289,0.135-0.596,0.203-0.912,0.203c-0.838,0-1.608-0.49-1.962-1.249c-0.504-1.081-0.035-2.37,1.046-2.874
					C422.878,457.375,423.185,457.306,423.501,457.306 M423.501,456.306c-0.447,0-0.902,0.095-1.335,0.297
					c-1.583,0.738-2.268,2.62-1.53,4.203c0.537,1.151,1.677,1.827,2.868,1.827c0.447,0,0.902-0.095,1.335-0.297
					c1.583-0.738,2.268-2.62,1.53-4.203C425.832,456.983,424.692,456.306,423.501,456.306L423.501,456.306z"/>
			</g>
			<g>
				<path d="M422.182,452.076c-0.154,0-0.309-0.014-0.466-0.041c-1.445-0.256-2.415-1.64-2.16-3.085
					c0.225-1.275,1.326-2.201,2.618-2.201c0.154,0,0.31,0.014,0.466,0.041c1.446,0.256,2.415,1.64,2.16,3.085
					C424.576,451.15,423.474,452.076,422.182,452.076z"/>
				<path d="M422.175,447.249L422.175,447.249c0.126,0,0.253,0.011,0.379,0.033c1.174,0.207,1.961,1.331,1.754,2.505
					c-0.183,1.036-1.077,1.788-2.126,1.788c-0.126,0-0.254-0.011-0.379-0.033c-0.569-0.1-1.065-0.416-1.396-0.889
					c-0.331-0.473-0.459-1.047-0.358-1.616C420.231,448.001,421.126,447.249,422.175,447.249 M422.175,446.249
					c-1.506,0-2.84,1.08-3.111,2.614c-0.303,1.72,0.845,3.36,2.565,3.664c0.186,0.033,0.371,0.049,0.553,0.049
					c1.506,0,2.84-1.08,3.111-2.614c0.303-1.72-0.845-3.36-2.565-3.664C422.542,446.265,422.357,446.249,422.175,446.249
					L422.175,446.249z"/>
			</g>
			<g>
				<path d="M426.863,443.077c-0.711,0-1.38-0.277-1.883-0.78s-0.78-1.171-0.78-1.883c0-0.711,0.277-1.38,0.78-1.883
					s1.171-0.779,1.883-0.779c0.711,0,1.38,0.276,1.883,0.779c1.038,1.039,1.038,2.728,0,3.766
					C428.243,442.8,427.574,443.077,426.863,443.077z"/>
				<path d="M426.863,438.252c0.578,0,1.121,0.225,1.529,0.633c0.843,0.843,0.843,2.215,0,3.058
					c-0.408,0.408-0.952,0.633-1.529,0.633s-1.121-0.225-1.529-0.633c-0.843-0.843-0.843-2.215,0-3.058
					C425.742,438.477,426.285,438.252,426.863,438.252 M426.863,437.252c-0.809,0-1.619,0.309-2.236,0.926
					c-1.235,1.235-1.235,3.238,0,4.473c0.618,0.618,1.427,0.926,2.236,0.926s1.619-0.309,2.236-0.926
					c1.235-1.235,1.235-3.238,0-4.473C428.481,437.561,427.672,437.252,426.863,437.252L426.863,437.252z"/>
			</g>
		</g>
		<g>
			<g>
				<line style="stroke:#000000;stroke-miterlimit:10;" x1="440.274" y1="451.206" x2="443.436" y2="448.043"/>
				<line style="stroke:#000000;stroke-miterlimit:10;" x1="433.372" y1="457.211" x2="436.008" y2="454.576"/>
			</g>
			<g>
				<path d="M438.338,455.631c-1.664,0-3.017-1.354-3.017-3.017s1.354-3.017,3.017-3.017s3.017,1.354,3.017,3.017
					S440.002,455.631,438.338,455.631z"/>
				<path d="M438.338,450.098c1.388,0,2.517,1.129,2.517,2.517s-1.129,2.517-2.517,2.517s-2.517-1.129-2.517-2.517
					S436.951,450.098,438.338,450.098 M438.338,449.098c-1.942,0-3.517,1.575-3.517,3.517c0,1.942,1.575,3.517,3.517,3.517
					c1.942,0,3.517-1.574,3.517-3.517C441.855,450.672,440.28,449.098,438.338,449.098L438.338,449.098z"/>
			</g>
		</g>
		<g>
			<polygon points="777.498,302.521 787.072,331.759 775.617,333.542 			"/>
			<path d="M777.838,305.167l8.576,26.188l-10.261,1.598L777.838,305.167 M777.157,299.874l-2.077,34.258l12.65-1.97
				L777.157,299.874L777.157,299.874z"/>
		</g>
		<g>
			<polygon points="783.78,294.714 850.481,320.979 795.453,331.587 			"/>
			<path d="M784.574,295.564l64.123,25.25l-52.902,10.198L784.574,295.564 M782.987,293.864l12.123,38.298l57.155-11.018
				L782.987,293.864L782.987,293.864z"/>
		</g>
		<g>
			<g>
				<polygon points="600.528,338.056 655.469,283.115 768.144,283.309 763.4,335.986 761.644,336.458 760.046,338.056 				"/>
				<path d="M655.676,283.616l111.92,0.193l-4.663,51.786l-1.29,0.347l-0.258,0.069l-0.189,0.189l-1.357,1.357H601.736
					L655.676,283.616 M655.263,282.615l-55.941,55.941h160.932l1.65-1.65l1.964-0.528l4.823-53.568L655.263,282.615L655.263,282.615
					z"/>
			</g>
			<g>
				<path d="M624.917,327.99l30.733-33.806h101.536v28.231c0,4.157-3.381,7.539-7.535,7.539L624.917,327.99z"/>
				<path d="M756.686,294.684v27.731c0,3.881-3.156,7.038-7.036,7.038l-0.113-0.001l-123.506-1.945l29.84-32.824H756.686
					 M757.686,293.684H655.428l-31.626,34.789l125.719,1.98c0.043,0.001,0.086,0.001,0.129,0.001c4.429,0,8.036-3.593,8.036-8.038
					V293.684L757.686,293.684z"/>
			</g>
			<line style="stroke:#000000;stroke-miterlimit:10;" x1="680.729" y1="300.009" x2="659.118" y2="321.62"/>
			<line style="stroke:#000000;stroke-miterlimit:10;" x1="744.69" y1="298.949" x2="717.099" y2="326.891"/>
		</g>
		<g>
			<polygon points="763.966,337.245 769.128,285.568 773.932,286.983 768.223,337.666 			"/>
			<path d="M769.565,286.219l3.823,1.126l-5.607,49.776l-3.268-0.324L769.565,286.219 M768.69,284.918l-5.271,52.775l5.245,0.519
				l5.811-51.59L768.69,284.918L768.69,284.918z"/>
		</g>
		<g>
			<path d="M672.976,436.028l11.608-11.608c0.982,1.894,2.949,3.121,5.105,3.121c3.183,0,5.771-2.589,5.771-5.771
				c0-2.156-1.228-4.123-3.121-5.105l25.326-25.326c1.074,1.536,2.823,2.468,4.704,2.468c3.182,0,5.771-2.589,5.771-5.771
				c0-1.881-0.932-3.629-2.468-4.704l24.177-24.177c0.936,0.602,1.996,0.918,3.093,0.918c3.182,0,5.771-2.589,5.771-5.771
				c0-1.097-0.316-2.157-0.918-3.092l10.677-10.677l147.373-27.369c6.445,0.473,12.979,1.027,19.425,1.646
				c20.91,2.01,42.027,4.822,62.764,8.358c0.383,0.074,39.482,7.51,57.112,7.51c1.971,0,3.625-0.094,4.946-0.279l-78.271,64.401
				c-12.706-21.062-39.534-35.727-65.478-35.727c-39.646,0-77.14,37.329-77.455,76.957H672.976z"/>
			<path d="M915.872,313.666c6.425,0.472,12.935,1.024,19.35,1.64c20.898,2.008,42.003,4.819,62.708,8.35
				c0.393,0.075,39.539,7.52,57.216,7.52c1.247,0,2.359-0.036,3.342-0.107l-76.54,62.978c-12.91-20.941-39.697-35.476-65.605-35.476
				c-39.739,0-77.328,37.257-77.949,76.957H675.068h-0.886l10.299-10.299c1.144,1.725,3.091,2.811,5.208,2.811
				c3.458,0,6.271-2.813,6.271-6.271c0-2.117-1.087-4.064-2.811-5.208l24.468-24.468c1.178,1.389,2.907,2.213,4.752,2.213
				c3.458,0,6.271-2.813,6.271-6.271c0-1.845-0.824-3.574-2.213-4.752l23.5-23.5c0.927,0.518,1.955,0.788,3.014,0.788
				c3.458,0,6.271-2.813,6.271-6.271c0-1.059-0.271-2.087-0.788-3.014l10.291-10.291l81.043-15.051L915.872,313.666 M915.816,312.66
				c-49.196,9.136-98.392,18.273-147.588,27.409l-11.082,11.082c0.661,0.881,1.067,1.963,1.067,3.15c0,2.911-2.36,5.271-5.271,5.271
				c-1.186,0-2.269-0.406-3.15-1.067l-24.919,24.919c1.641,0.893,2.768,2.612,2.768,4.612c0,2.911-2.36,5.271-5.271,5.271
				c-2,0-3.719-1.127-4.612-2.768l-26.29,26.29c2.031,0.732,3.492,2.658,3.492,4.941c0,2.911-2.36,5.271-5.271,5.271
				c-2.284,0-4.209-1.461-4.942-3.492l-12.98,12.98h3.3h164.318c0-39.591,37.366-76.957,76.957-76.957
				c26.319,0,52.879,14.843,65.346,35.983l80.315-66.084c-1.489,0.494-3.873,0.706-6.859,0.706c-17.786,0-57.028-7.503-57.028-7.503
				c-19.939-3.401-40.891-6.258-62.8-8.363C928.737,313.679,922.236,313.13,915.816,312.66L915.816,312.66z"/>
		</g>
		<g>
			<rect x="509.394" y="391.171" width="201.407" height="6.379"/>
			<path d="M710.301,391.671v5.379H509.894v-5.379H710.301 M711.301,390.671H508.894v7.379h202.407V390.671L711.301,390.671z"/>
		</g>
		<g>
			<rect x="518.665" y="402.767" width="192.136" height="6.38"/>
			<path d="M710.301,403.267v5.379H519.165v-5.379H710.301 M711.301,402.267H518.165v7.379h193.136V402.267L711.301,402.267z"/>
		</g>
		<g>
			<rect x="518.665" y="414.363" width="192.136" height="6.379"/>
			<path d="M710.301,414.863v5.379H519.165v-5.379H710.301 M711.301,413.863H518.165v7.379h193.136V413.863L711.301,413.863z"/>
		</g>
		<g>
			<rect x="518.665" y="425.959" width="189.613" height="6.38"/>
			<path d="M707.778,426.459v5.379H519.165v-5.379H707.778 M708.778,425.459H518.165v7.379h190.613V425.459L708.778,425.459z"/>
		</g>
		<g>
			<rect x="726.918" y="391.171" width="118.821" height="6.379"/>
			<path d="M845.239,391.671v5.379h-117.82v-5.379H845.239 M846.239,390.671h-119.82v7.379h119.82V390.671L846.239,390.671z"/>
		</g>
		<g>
			<rect x="721.3" y="402.767" width="121.276" height="6.38"/>
			<path d="M842.076,403.267v5.379H721.8v-5.379H842.076 M843.076,402.267H720.8v7.379h122.276V402.267L843.076,402.267z"/>
		</g>
		<g>
			<rect x="713.909" y="414.363" width="126.559" height="6.379"/>
			<path d="M839.968,414.863v5.379H714.409v-5.379H839.968 M840.968,413.863H713.409v7.379h127.559V413.863L840.968,413.863z"/>
		</g>
		<g>
			<rect x="713.909" y="425.959" width="122.342" height="6.38"/>
			<path d="M835.751,426.459v5.379H714.409v-5.379H835.751 M836.751,425.459H713.409v7.379h123.342V425.459L836.751,425.459z"/>
		</g>
		<g>
			<path d="M326.245,420.829l31.242,1.46l0.09-0.412c2.261-10.313,8.806-29.881,27.239-45.052
				c21.66-17.827,45.774-17.922,53.698-17.953l0.353,0c28.908,0,64.66,13.609,79.369,44.014c4.402,9.1,6.954,20.962,7.024,32.62
				c-0.526,0.004-1.078,0.006-1.646,0.006c-1.015,0-2.082-0.005-3.148-0.011c-1.067-0.005-2.134-0.01-3.148-0.01
				c-0.558,0-1.1,0.001-1.618,0.005c-0.293-7.836-1.254-27.16-13.789-43.548c-20.688-27.049-53.541-29.151-63.116-29.151
				c-0.872,0-1.512,0.018-1.884,0.031c-39.123,3.048-57.86,24.435-66.694,41.84c-8.689,17.121-9.747,33.855-9.87,36.899
				l-24.869,0.256L326.245,420.829z"/>
			<path d="M438.868,359.372L438.868,359.372c28.751,0.003,64.305,13.525,78.918,43.731c4.308,8.906,6.831,20.481,6.969,31.906
				c-0.363,0.002-0.736,0.002-1.117,0.002c-1.013,0-2.078-0.005-3.143-0.01c-1.068-0.005-2.137-0.01-3.153-0.01
				c-0.396,0-0.784,0.001-1.161,0.003c-0.316-8.112-1.475-27.14-13.873-43.349c-20.828-27.231-53.879-29.347-63.512-29.347
				c-0.678,0-1.319,0.01-1.946,0.033c-39.333,3.065-58.188,24.592-67.079,42.111c-8.351,16.453-9.691,32.564-9.901,36.631
				l-24.067,0.247l-8.776-19.954l30.015,1.402l0.843,0.039l0.181-0.824c2.247-10.25,8.752-29.698,27.068-44.773
				c21.523-17.714,45.502-17.807,53.382-17.838L438.868,359.372 M438.868,358.372c-0.12,0-0.237,0-0.356,0.001
				c-8.99,0.035-32.652,0.484-54.014,18.066c-20.147,16.582-25.845,38.196-27.409,45.331c-10.542-0.493-21.084-0.985-31.626-1.478
				l9.691,22.035l25.679-0.264c0,0,0.85-72.871,76.096-78.736c0.369-0.013,1.004-0.03,1.868-0.03
				c8.861,0,41.969,1.827,62.718,28.955c12.729,16.642,13.424,36.113,13.705,43.749c0.666-0.007,1.381-0.01,2.124-0.01
				c2.029,0,4.267,0.02,6.296,0.02c0.742,0,1.457-0.003,2.123-0.01c0-11.651-2.542-23.963-7.075-33.333
				C503.618,371.519,467.204,358.373,438.868,358.372L438.868,358.372z"/>
		</g>
		<g>
			<path d="M831.04,436.028l4.081-13.588c1.721-9.097,9.563-39.988,38.786-57.697c15.729-9.532,31.407-11.532,41.789-11.532
				c0.404,0,0.794,0.003,1.167,0.008c38.709,0.558,63.561,29.487,68.889,36.314l-4.491,3.593
				c-5.496-7.036-11.804-13.313-18.755-18.665c-5.742-4.421-11.681-8.992-20.899-12.212c-6.428-2.245-13.209-3.384-20.157-3.384
				c-1.702,0-3.433,0.07-5.146,0.208c-7.472,0.04-33.603,1.807-54.605,22.81c-20.56,20.559-22.687,46.038-22.807,54.145H831.04z"/>
			<path d="M915.698,353.711c0.401,0,0.788,0.003,1.158,0.008c16.998,0.245,33.214,5.867,48.197,16.711
				c10.215,7.393,17.052,15.294,19.999,19.022l-3.71,2.968c-5.449-6.91-11.679-13.081-18.531-18.355
				c-5.775-4.445-11.746-9.041-21.04-12.288c-6.48-2.264-13.318-3.412-20.323-3.412c-1.702,0-3.434,0.069-5.147,0.206
				c-7.606,0.048-33.854,1.857-54.955,22.958c-20.291,20.291-22.743,45.342-22.944,53.999h-6.688l1.751-5.828l2.137-7.116
				l0.015-0.05l0.01-0.052c1.698-8.994,9.495-39.709,38.541-57.311C889.796,355.699,905.378,353.711,915.698,353.711
				 M915.698,352.711c-8.911,0-25.313,1.462-42.05,11.605c-31.036,18.808-37.894,52.094-39.005,57.981
				c-1.425,4.744-2.85,9.488-4.275,14.232h9.018c0.029-5.228,0.71-32.336,22.665-54.291c21.956-21.956,49.064-22.636,54.291-22.665
				c1.479-0.119,3.195-0.206,5.104-0.206c5.415,0,12.392,0.7,19.994,3.356c9.142,3.194,15.118,7.794,20.76,12.137
				c5.213,4.013,12.141,10.14,18.976,18.976c1.757-1.406,3.514-2.811,5.271-4.217c-3.619-4.718-28.677-36.307-69.577-36.897
				C916.496,352.714,916.104,352.711,915.698,352.711L915.698,352.711z"/>
		</g>
		<g>
			<path style="stroke:#000000;stroke-miterlimit:10;" d="M1061.34,328.944c-10.361,3.437-63.887-6.797-63.887-6.797
				c-19.939-3.401-40.891-6.258-62.8-8.363c-6.58-0.632-13.082-1.181-19.501-1.652c-49.196,9.136-98.392,18.273-147.588,27.409l0,0"
				/>
			<path style="stroke:#000000;stroke-miterlimit:10;" d="M689.025,426.513c-2.284,0-4.209-1.461-4.942-3.492l-12.98,12.98h3.3"/>
			<path style="stroke:#000000;stroke-miterlimit:10;" d="M752.277,359.044c-1.186,0-2.269-0.406-3.15-1.067l-24.919,24.919
				c1.641,0.893,2.768,2.612,2.768,4.612c0,2.911-2.36,5.271-5.271,5.271c-2,0-3.719-1.127-4.612-2.768l-26.29,26.29
				c2.031,0.732,3.492,2.658,3.492,4.941c0,2.911-2.36,5.271-5.271,5.271"/>
			<path style="stroke:#000000;stroke-miterlimit:10;" d="M767.563,339.542l-11.082,11.082c0.661,0.881,1.067,1.963,1.067,3.15
				c0,2.911-2.36,5.271-5.271,5.271"/>
		</g>
		<g>
			<path style="stroke:#000000;stroke-miterlimit:10;" d="M899.732,405.956c0,0-30.609,14.232-27.292,42.168"/>
			<path style="stroke:#000000;stroke-miterlimit:10;" d="M938.978,499.974c0,0,30.609-14.232,27.292-42.168"/>
		</g>
		<g>
			<path style="stroke:#000000;stroke-miterlimit:10;" d="M452.376,503.67c0,0,32.674-8.477,34.45-36.554"/>
			<path style="stroke:#000000;stroke-miterlimit:10;" d="M430.732,404.116c0,0-32.674,8.477-34.45,36.554"/>
		</g>
		<path style="stroke:#000000;stroke-miterlimit:10;" d="M846.239,357.977c0,0,43.822-52.17,106.511-15.8"/>
		<g>
			<g>
				<path d="M1085.826,387.957c-7.379,0-13.383-6.003-13.383-13.383c0-7.379,6.004-13.382,13.383-13.382
					c4.492,0,22.072,3.493,22.072,13.382C1107.898,384.464,1090.318,387.957,1085.826,387.957z"/>
				<path d="M1085.826,361.692c3.808,0,21.573,3.356,21.573,12.882c0,9.527-17.765,12.883-21.573,12.883
					c-7.104,0-12.883-5.779-12.883-12.883C1072.943,367.471,1078.723,361.692,1085.826,361.692 M1085.826,360.692
					c-7.655,0-13.883,6.227-13.883,13.882s6.227,13.883,13.883,13.883c4.595,0,22.573-3.624,22.573-13.883
					S1090.421,360.692,1085.826,360.692L1085.826,360.692z"/>
			</g>
			<g>
				<path d="M1085.826,384.795c-5.636,0-10.221-4.585-10.221-10.221c0-5.635,4.585-10.219,10.221-10.219
					c3.742,0,18.91,3.287,18.91,10.219C1104.736,381.508,1089.568,384.795,1085.826,384.795z"/>
				<path d="M1085.826,364.855c4.438,0,18.41,3.554,18.41,9.72c0,6.166-13.972,9.72-18.41,9.72c-5.36,0-9.72-4.36-9.72-9.72
					C1076.106,369.215,1080.466,364.855,1085.826,364.855 M1085.826,363.855c-5.911,0-10.72,4.809-10.72,10.72
					c0,5.911,4.809,10.72,10.72,10.72c3.981,0,19.41-3.325,19.41-10.72S1089.807,363.855,1085.826,363.855L1085.826,363.855z"/>
			</g>
			<g>
				<path d="M1085.826,381.631c-3.892,0-7.058-3.166-7.058-7.057s3.166-7.057,7.058-7.057c4.288,0,15.747,3.432,15.747,7.057
					C1101.573,378.2,1090.114,381.631,1085.826,381.631z"/>
				<path d="M1085.826,368.018c4.424,0,15.247,3.5,15.247,6.557s-10.823,6.557-15.247,6.557c-3.616,0-6.557-2.941-6.557-6.557
					S1082.21,368.018,1085.826,368.018 M1085.826,367.018c-4.174,0-7.557,3.383-7.557,7.557c0,4.174,3.383,7.557,7.557,7.557
					s16.247-3.383,16.247-7.557C1102.073,370.401,1090,367.018,1085.826,367.018L1085.826,367.018z"/>
			</g>
		</g>
		<path style="stroke:#000000;stroke-miterlimit:10;" d="M303.608,368.114c0,0,63.115-34.92,229.869-26.475"/>
		<path style="stroke:#000000;stroke-miterlimit:10;" d="M569.511,343.759c-196.738-21.86-266.713,20.03-266.713,20.03l2.635,15.286
			"/>
	</g>
</g>
<g id="Layer_3">
	<path style="display:none;fill:#292929;" d="M367.611,428.75h-32.637l-6.116-13.583h26.401
		c11.334-29.864,46.998-51.667,89.24-51.667c35.841,0,66.946,15.696,82.473,38.694H806L818.879,402
		c0-22.03,35.096-42.732,72.651-42.732c24.966,0,49.812,8.349,61.638,20.113l96.633-7.601l-20.3,19.721l-73.013,8.133"/>
	<g>
		<ellipse style="opacity:0.85;fill:#1E1E1E;" cx="681.101" cy="517.307" rx="328.5" ry="22"/>
		<g>
			<polygon style="fill:#ABABAB;stroke:#111111;stroke-miterlimit:10;" points="901.349,292.088 896.874,296.098 908.193,299.184 
				913.222,294.741 			"/>
			<polygon style="fill:#ABABAB;stroke:#111111;stroke-miterlimit:10;" points="921.105,302.479 931.948,292.762 929.362,292.621 
				915.823,292.346 908.193,299.184 			"/>
			
				<line style="fill:none;stroke:#666464;stroke-linecap:round;stroke-miterlimit:10;" x1="926.257" y1="294.454" x2="919.411" y2="300.588"/>
			
				<line style="fill:none;stroke:#383838;stroke-linecap:round;stroke-miterlimit:10;" x1="918.19" y1="293.928" x2="913.597" y2="298.045"/>
		</g>
		<g>
			<path style="fill:#949492;stroke:#2B2B2B;stroke-linejoin:round;stroke-miterlimit:10;" d="M966.104,388.52l18.996,0.364
				c0,0,10.075-3.808,11.113-5.788c0,0-1.191,9.979-10.228,11.806l-17.997-0.344L966.104,388.52z"/>
			<path style="opacity:0.8;fill:#3F3F3F;" d="M996.227,383.075c0,0-0.837,8.507-6.516,8.398l-22.457-1.097l-0.646-2.04
				c6.298,0.13,12.596,0.259,18.894,0.389c1.726-0.633,3.671-1.463,5.731-2.558C993.162,385.14,994.825,384.076,996.227,383.075z"/>
		</g>
		<g>
			<path style="fill:#949492;stroke:#191919;stroke-linejoin:round;stroke-miterlimit:10;" d="M982.294,377.287h13.162
				c0,0,6.927-2.913,7.62-4.37c0,0-0.693,7.283-6.927,8.739H983.68L982.294,377.287z"/>
			<path style="opacity:0.8;fill:#3F3F3F;" d="M1003.076,372.918c0,0-0.475,6.39-4.475,6.39l-15.825-0.5l-0.482-1.52
				c4.436,0.007,8.871,0.014,13.307,0.02c1.207-0.499,2.565-1.149,4-2C1000.947,374.51,1002.103,373.688,1003.076,372.918z"/>
		</g>
		<polygon style="fill:#8F8F8E;stroke:#191919;stroke-width:2;stroke-miterlimit:10;" points="1049.041,357.173 1036.754,369.46 
			993.318,369.46 999.851,363.057 		"/>
		<polygon style="opacity:0.5;fill:#3F3F3F;" points="1049.041,357.173 1041.601,364.307 996.601,366.307 999.851,363.057 		"/>
		<g>
			<path style="fill:#3B3B3B;" d="M591.169,344.308l-16.298-1.111c-1.762-1.494-8.213-7.481-7.632-14.597l63.181-49.342
				c21.465-3.265,43.26-5.524,64.792-6.715c12.171-0.673,24.958-1.015,38.007-1.015c12.969,0,26.016,0.341,38.777,1.015
				c5.749,0.303,17.794,1.2,41.791,2.985l0.166,0.013c16.817,1.251,33.571,2.525,49.798,3.786
				c7.633,3.44,100.957,45.301,149.674,57.674l-244.02,7.308L591.169,344.308z"/>
			<path style="fill:#191919;" d="M733.223,273.529c12.932,0,25.941,0.34,38.667,1.012c5.741,0.303,17.83,1.202,41.914,2.995
				c16.546,1.231,33.178,2.495,49.444,3.758c8.814,3.967,86.879,38.886,137.118,54.097l-230.961,6.917l-178.168,0.001l-15.556-1.06
				c-1.908-1.721-6.425-6.354-6.478-11.643l62.035-48.448c21.236-3.213,42.79-5.439,64.084-6.616
				c12.133-0.671,24.884-1.011,37.9-1.011H733.223 M733.219,269.529c-17.888,0-31.372,0.645-38.118,1.018
				c-17.857,0.987-40.06,2.923-65.5,6.813l-64.25,50.178c-1.5,9.85,8.75,17.612,8.75,17.612l17,1.159l178.363-0.001l263.765-7.899
				c-36.212-1.084-168.974-61.049-168.974-61.049c-11.461-0.89-28.857-2.229-50.154-3.813c-24.144-1.797-36.216-2.695-42-3
				C757.755,269.79,744.598,269.529,733.219,269.529L733.219,269.529z M1036.601,338.307l-3.372,0.101
				c0.329,0.01,0.651,0.015,0.964,0.015C1035.061,338.423,1035.863,338.385,1036.601,338.307L1036.601,338.307z"/>
		</g>
		<polygon style="fill:#454545;stroke:#141414;stroke-miterlimit:10;" points="384.56,429.307 384.56,470.975 364.637,470.975 
			364.637,465.307 369.182,461.111 369.182,454.807 358.021,454.807 358.021,446.807 346.143,446.807 346.143,429.307 		"/>
		<polygon style="fill:#353534;stroke:#111111;stroke-width:3;stroke-miterlimit:10;" points="326.101,381.807 314.101,385.807 
			308.101,403.807 317.101,431.656 327.101,439.807 352.217,439.807 		"/>
		<path d="M353.135,439.557"/>
		<g>
			<path style="fill:#BCBCBC;" d="M330.547,435.05l-11.944-43.303c0.116-1.83,5.443-4.092,9.083-5.201l22.47,49.904L330.547,435.05z
				"/>
			<path style="fill:#3A3A3A;" d="M327.412,387.154l21.945,48.737l-18.422-1.315l-11.825-42.871
				C319.329,390.454,323.435,388.417,327.412,387.154 M327.963,385.942c0,0-9.862,2.866-9.862,5.866l12.058,43.716l20.798,1.485
				L327.963,385.942L327.963,385.942z"/>
		</g>
		<rect x="538.101" y="434.807" style="fill:#303030;stroke:#141313;stroke-miterlimit:10;" width="44" height="8"/>
		<polygon style="fill:#2D2C2C;stroke:#141313;stroke-miterlimit:10;" points="584.439,434.807 679.101,434.807 679.101,437.748 
			734.428,437.748 753.365,437.748 745.703,445.409 639.528,445.409 584.439,445.409 		"/>
		<path style="fill:none;stroke:#000000;stroke-miterlimit:10;" d="M746.101,447.807"/>
		<polygon style="fill:#303030;stroke:#141313;stroke-miterlimit:10;" points="746.101,445.807 593.671,445.807 590.485,448.993 
			556.101,448.993 556.101,456.703 753.365,456.703 		"/>
		<g>
			<path style="fill:#BFBEBE;stroke:#000000;stroke-miterlimit:10;" d="M583.101,448.807h-26.996c-1.659,0-3.004-1.345-3.004-3.004
				v-5.991c0-1.659,1.345-3.004,3.004-3.004h26.996V448.807z"/>
			<path style="fill:#BFBEBE;stroke:#000000;stroke-miterlimit:10;" d="M588.506,448.807h-3.405v-12h3.405
				c1.986,0,3.595,1.61,3.595,3.595v4.809C592.101,447.198,590.492,448.807,588.506,448.807z"/>
		</g>
		<path style="fill:#474646;stroke:#161616;stroke-miterlimit:10;" d="M558.103,446.807L558.103,446.807
			c-1.659,0-3.004-1.345-3.004-3.004v-1.502c0-1.659,1.345-3.004,3.004-3.004l0,0V446.807z"/>
		<g>
			<rect x="561.601" y="439.308" style="fill:#474646;" width="4" height="8"/>
			<path style="fill:#161616;" d="M565.101,439.807v7h-3v-7H565.101 M566.101,438.807h-5v9h5V438.807L566.101,438.807z"/>
		</g>
		<g>
			<rect x="570.601" y="439.308" style="fill:#474646;" width="4" height="8"/>
			<path style="fill:#161616;" d="M574.101,439.807v7h-3v-7H574.101 M575.101,438.807h-5v9h5V438.807L575.101,438.807z"/>
		</g>
		<g>
			<rect x="578.601" y="439.308" style="fill:#474646;" width="4" height="8"/>
			<path style="fill:#161616;" d="M582.101,439.807v7h-3v-7H582.101 M583.101,438.807h-5v9h5V438.807L583.101,438.807z"/>
		</g>
		<path style="fill:#474646;stroke:#161616;stroke-miterlimit:10;" d="M586.474,446.514L586.474,446.514
			c1.659,0,3.004-1.345,3.004-3.004v-1.502c0-1.659-1.345-3.004-3.004-3.004l0,0V446.514z"/>
		<g>
			<rect x="583.101" y="470.808" style="fill:#3D3D3D;" width="180" height="3"/>
			<g>
				<path style="fill:#141313;" d="M762.601,471.307v2h-179v-2H762.601 M763.601,470.307h-181v4h181V470.307L763.601,470.307z"/>
			</g>
		</g>
		<g>
			<rect x="766.102" y="468.808" style="fill:#3D3D3D;" width="71" height="6"/>
			<g>
				<path style="fill:#141313;" d="M836.601,469.307v5h-70v-5H836.601 M837.601,468.307h-72v7h72V468.307L837.601,468.307z"/>
			</g>
		</g>
		<g>
			<rect x="810.601" y="461.226" width="19" height="7"/>
		</g>
		<g>
			<polygon style="fill:#3D3D3D;" points="577.101,469.808 577.101,452.813 815.773,455.797 808.302,469.808 			"/>
			<path style="fill:#141313;" d="M577.601,453.32l237.344,2.967l-6.944,13.021h-230.4V453.32 M576.601,452.307v18h232l8-15
				L576.601,452.307L576.601,452.307z"/>
		</g>
		<path style="fill:none;stroke:#000000;stroke-miterlimit:10;" d="M1031.101,332.807"/>
		<path style="fill:none;stroke:#000000;stroke-miterlimit:10;" d="M876.101,296.807"/>
		<g>
			<polygon style="fill:#3D3D3D;" points="592.408,481.219 588.792,474.101 755.156,474.101 750.969,481.219 			"/>
			<path style="fill:#141313;" d="M754.282,474.601l-3.599,6.118H592.715l-3.108-6.118H754.282 M756.03,473.601H587.977l4.125,8.118
				h159.153L756.03,473.601L756.03,473.601z"/>
		</g>
		<polyline style="fill:#272727;" points="682.99,433.231 576.601,433.231 576.601,351.002 585.536,342.307 775.601,342.307 		"/>
		<path style="fill:#3B3B3B;stroke:#191919;stroke-width:4;stroke-linejoin:round;stroke-miterlimit:10;" d="M766.465,342.807
			l4.063-52.198c0,0,94.629,39.434,88.574,38.199"/>
		<path style="fill:#737373;" d="M315.931,391.361l-3.814,12.397c-0.01,0.032-0.01,0.067,0,0.099l7.971,25.905
			c0.009,0.03,0.026,0.056,0.049,0.077l8.537,7.588c0.126,0.112,0.32-0.009,0.275-0.171l-12.693-45.89
			C316.211,391.203,315.981,391.199,315.931,391.361z"/>
		<path style="fill:none;stroke:#000000;stroke-miterlimit:10;" d="M961.647,402.918"/>
		<path style="fill:none;stroke:#000000;stroke-miterlimit:10;" d="M961.046,402.918"/>
		<path style="fill:#323236;stroke:#212121;stroke-width:3;stroke-miterlimit:10;" d="M750.101,266.807"/>
		<rect x="591.601" y="345.307" style="fill:#525252;" width="175" height="3"/>
		<g>
			<circle style="fill:#E0E0E0;" cx="604.101" cy="455.808" r="5.5"/>
			<path style="fill:#1E1E1E;" d="M604.101,450.807c2.757,0,5,2.243,5,5s-2.243,5-5,5s-5-2.243-5-5S601.344,450.807,604.101,450.807
				 M604.101,449.807c-3.314,0-6,2.686-6,6s2.686,6,6,6c3.314,0,6-2.686,6-6S607.415,449.807,604.101,449.807L604.101,449.807z"/>
		</g>
		<g>
			<polygon style="fill:#191919;" points="1030.601,333.307 1039.076,333.33 1039.076,334.096 1031.101,334.177 1030.38,333.742 			
				"/>
			<path style="fill:#191919;" d="M1039.076,333.33l3.958-0.071l0.239-0.004c0,0-3.886,1.632-4.279,0.842"/>
		</g>
		<g>
			<circle style="fill:#383636;" cx="906.818" cy="447.308" r="67"/>
			<path style="fill:#191919;" d="M906.818,381.807c36.175,0,65.5,29.325,65.5,65.5s-29.325,65.5-65.5,65.5
				c-36.175,0-65.5-29.325-65.5-65.5S870.643,381.807,906.818,381.807 M906.818,378.807c-37.771,0-68.5,30.729-68.5,68.5
				s30.729,68.5,68.5,68.5s68.5-30.729,68.5-68.5S944.589,378.807,906.818,378.807L906.818,378.807z"/>
		</g>
		<g>
			<g>
				<path style="fill:#191919;" d="M966.601,447.307c-0.035,12.221-3.813,24.166-10.874,34.148
					c-6.828,9.653-16.655,17.188-27.762,21.248c-11.635,4.254-24.502,4.754-36.427,1.39c-11.482-3.239-21.78-10.011-29.405-19.175
					c-7.733-9.293-12.469-21.011-13.364-33.065c-0.911-12.261,1.983-24.607,8.365-35.126c6.158-10.151,15.357-18.281,26.156-23.204
					c11.2-5.105,24.055-6.507,36.105-4.041c11.738,2.402,22.554,8.39,30.84,17.04c8.312,8.677,13.802,19.808,15.676,31.674
					C966.387,441.209,966.593,444.259,966.601,447.307c0.005,1.93,3.005,1.934,3,0c-0.037-12.82-4.003-25.491-11.474-35.93
					c-7.271-10.16-17.481-17.981-29.208-22.302c-12.201-4.496-25.84-4.966-38.34-1.402c-11.985,3.417-22.855,10.529-30.775,20.153
					c-8.077,9.814-12.993,21.914-14.008,34.588c-1.029,12.861,2.052,25.954,8.747,36.986c6.436,10.605,16.074,19.231,27.384,24.349
					c11.892,5.381,25.302,6.893,38.099,4.309c12.271-2.478,23.675-8.81,32.331-17.846c8.724-9.107,14.602-20.857,16.5-33.336
					c0.482-3.17,0.735-6.363,0.745-9.57C969.607,445.377,966.607,445.374,966.601,447.307z"/>
			</g>
		</g>
		<g>
			<circle style="fill:#5B5B5B;" cx="907.352" cy="447.058" r="33.5"/>
			<path style="fill:#6D6D6D;" d="M907.351,415.557c17.369,0,31.5,14.131,31.5,31.5s-14.131,31.5-31.5,31.5s-31.5-14.131-31.5-31.5
				S889.982,415.557,907.351,415.557 M907.351,411.557c-19.606,0-35.5,15.894-35.5,35.5s15.894,35.5,35.5,35.5
				c19.606,0,35.5-15.894,35.5-35.5S926.957,411.557,907.351,411.557L907.351,411.557z"/>
		</g>
		<circle style="fill:none;stroke:#1C1C1C;stroke-width:2;stroke-miterlimit:10;" cx="907.726" cy="447.182" r="25.125"/>
		<circle style="fill:none;stroke:#000000;stroke-miterlimit:10;" cx="907.898" cy="447.511" r="9.625"/>
		<g>
			<circle cx="908.101" cy="430.807" r="3"/>
			<circle cx="917.278" cy="433.701" r="3"/>
			<circle cx="923.136" cy="441.335" r="3"/>
			<circle cx="923.556" cy="450.949" r="3"/>
			<circle cx="918.386" cy="459.064" r="3"/>
			<circle cx="909.496" cy="462.747" r="3"/>
			<circle cx="900.101" cy="460.664" r="3"/>
			<circle cx="893.6" cy="453.569" r="3"/>
			<circle cx="892.344" cy="444.029" r="3"/>
			<circle cx="896.788" cy="435.494" r="3"/>
		</g>
		<g>
			<g>
				<g>
					
						<line style="fill:none;stroke:#6D6D6D;stroke-width:2;stroke-miterlimit:10;" x1="909.601" y1="446.307" x2="912.601" y2="443.307"/>
				</g>
				<g>
					
						<line style="fill:none;stroke:#6D6D6D;stroke-width:2;stroke-miterlimit:10;" x1="903.054" y1="452.004" x2="905.554" y2="449.504"/>
				</g>
			</g>
			<circle style="fill:#1C1C1C;" cx="907.765" cy="447.643" r="3.336"/>
		</g>
		<polygon style="fill:#878786;" points="329.556,387.771 323.949,389.274 340.034,429.978 349.601,435.307 		"/>
		<g>
			<rect x="553.101" y="455.808" style="fill:#3D3D3D;" width="25" height="11"/>
			<g>
				<path style="fill:#141313;" d="M577.601,456.307v10h-24v-10H577.601 M578.601,455.307h-26v12h26V455.307L578.601,455.307z"/>
			</g>
		</g>
		<path style="fill:#404040;stroke:#212020;stroke-width:2;stroke-linecap:round;stroke-miterlimit:10;" d="M352.217,439.807
			l24.571-0.25c0-41.125,33.668-74.714,74.813-74.714s74.5,26.839,74.5,67.964l56-1v-13v-68l8-2l-0.5-6.5l-17-1
			c-11-5-7.25-13.77-7.25-13.77c-162-16-217.25,24.27-217.25,24.27l0,0c0,0-8.777,4.915-25,14l2.719,14.5L352.217,439.807z"/>
		<circle style="fill:#383636;stroke:#000000;stroke-width:3;stroke-miterlimit:10;" cx="450.818" cy="450.307" r="65.5"/>
		<circle style="fill:none;stroke:#191919;stroke-width:2;stroke-miterlimit:10;" cx="451.601" cy="450.307" r="60.5"/>
		<g>
			<circle style="fill:#5B5B5B;" cx="451.351" cy="450.058" r="33.5"/>
			<path style="fill:#6D6D6D;" d="M451.351,418.557c17.369,0,31.5,14.131,31.5,31.5s-14.131,31.5-31.5,31.5s-31.5-14.131-31.5-31.5
				S433.982,418.557,451.351,418.557 M451.351,414.557c-19.606,0-35.5,15.894-35.5,35.5s15.894,35.5,35.5,35.5
				s35.5-15.894,35.5-35.5S470.957,414.557,451.351,414.557L451.351,414.557z"/>
		</g>
		<circle style="fill:none;stroke:#1C1C1C;stroke-width:2;stroke-miterlimit:10;" cx="451.726" cy="450.182" r="25.125"/>
		<circle style="fill:none;stroke:#000000;stroke-miterlimit:10;" cx="451.726" cy="450.182" r="9.625"/>
		<g>
			<circle cx="452.101" cy="433.807" r="3"/>
			<circle cx="461.278" cy="436.701" r="3"/>
			<circle cx="467.136" cy="444.335" r="3"/>
			<circle cx="467.556" cy="453.949" r="3"/>
			<circle cx="462.386" cy="462.064" r="3"/>
			<circle cx="453.496" cy="465.747" r="3"/>
			<circle cx="444.101" cy="463.664" r="3"/>
			<circle cx="437.6" cy="456.569" r="3"/>
			<circle cx="436.344" cy="447.029" r="3"/>
			<circle cx="440.788" cy="438.494" r="3"/>
		</g>
		<g>
			<g>
				<g>
					
						<line style="fill:none;stroke:#6D6D6D;stroke-width:2;stroke-miterlimit:10;" x1="453.509" y1="448.73" x2="456.509" y2="445.73"/>
				</g>
				<g>
					
						<line style="fill:none;stroke:#6D6D6D;stroke-width:2;stroke-miterlimit:10;" x1="446.962" y1="454.427" x2="449.462" y2="451.927"/>
				</g>
			</g>
			<circle style="fill:#1C1C1C;" cx="451.673" cy="450.066" r="3.336"/>
		</g>
		<polygon style="opacity:0.6;fill:#737373;" points="773.072,305.18 771.101,337.676 783.101,335.807 		"/>
		<polygon style="opacity:0.6;fill:#737373;" points="778.601,299.479 844.318,325.356 790.101,335.807 		"/>
		<g>
			<g>
				<path style="fill:#3B3B3B;" d="M609.208,339.872l49.063-49.063l104.582,0.18l-4.255,47.249l-0.516,0.139
					c-0.338,0.091-0.646,0.27-0.895,0.517l-0.979,0.979H609.208z"/>
				<path style="fill:#191919;" d="M659.098,292.81l101.566,0.175l-3.943,43.792c-0.348,0.185-0.667,0.421-0.948,0.702l-0.393,0.393
					H614.036L659.098,292.81 M657.444,288.807l-53.065,53.065h152.657l1.565-1.565l1.863-0.501l4.575-50.814L657.444,288.807
					L657.444,288.807z"/>
			</g>
			<path style="opacity:0.6;fill:#737373;" d="M746.856,334.185l-119.255-1.878l30-33h97v27.254
				C754.601,330.82,751.114,334.253,746.856,334.185z"/>
			<g>
				<path style="fill:#70706F;" d="M681.601,305.307c-1.416,2.001-2.971,3.862-4.575,5.675c-1.596,1.821-3.274,3.56-4.968,5.282
					c-1.721,1.696-3.459,3.374-5.28,4.97c-1.812,1.605-3.674,3.159-5.677,4.573c1.414-2.003,2.968-3.865,4.573-5.677
					c1.596-1.821,3.274-3.559,4.97-5.28c1.722-1.694,3.461-3.372,5.282-4.968C677.739,308.278,679.6,306.723,681.601,305.307z"/>
			</g>
			<g>
				<path style="fill:#7A7A7A;" d="M742.274,304.302c-1.887,2.5-3.914,4.86-5.99,7.173c-2.068,2.321-4.218,4.56-6.385,6.782
					c-2.193,2.197-4.405,4.375-6.699,6.472c-2.285,2.106-4.621,4.162-7.098,6.078c1.885-2.501,3.911-4.863,5.988-7.175
					c2.068-2.32,4.219-4.559,6.387-6.78c2.195-2.195,4.407-4.374,6.701-6.47C737.463,308.277,739.798,306.22,742.274,304.302z"/>
			</g>
		</g>
		<polygon style="fill:#3B3B3B;stroke:#191919;stroke-width:4;stroke-linejoin:round;stroke-miterlimit:10;" points="
			765.015,341.546 760.04,341.054 765.04,290.993 770.528,292.609 		"/>
		<g>
			<path style="fill:#3B3B3B;" d="M675.515,433.808l9.638-9.638c1.099,1.62,2.944,2.638,4.948,2.638c3.309,0,6-2.691,6-6
				c0-2.004-1.018-3.85-2.638-4.948l23.127-23.127c1.126,1.303,2.764,2.075,4.511,2.075c3.309,0,6-2.691,6-6
				c0-1.747-0.772-3.385-2.075-4.511l22.225-22.225c0.879,0.483,1.85,0.736,2.851,0.736c3.309,0,6-2.691,6-6
				c0-1-0.252-1.972-0.736-2.851l9.724-9.723l139.568-25.92c6.094,0.448,12.266,0.971,18.347,1.556
				c19.823,1.905,39.842,4.57,59.499,7.923c0.354,0.068,37.491,7.131,54.264,7.131c1.117,0,2.119-0.03,3.014-0.091l-72.435,59.6
				c-12.268-19.852-37.673-33.626-62.244-33.626c-37.703,0-73.368,35.336-73.992,73H675.515z"/>
			<path style="fill:#161616;" d="M904.712,319.321c6.045,0.445,12.165,0.965,18.196,1.544c19.799,1.903,39.792,4.565,59.387,7.907
				c1.528,0.292,37.604,7.152,54.471,7.152c0.038,0,0.076,0,0.114,0l-69.295,57.017c-12.66-19.611-37.984-33.134-62.484-33.134
				c-37.883,0-73.736,35.199-74.967,73H677.93l7.148-7.148c1.292,1.342,3.095,2.148,5.023,2.148c3.86,0,7-3.14,7-7
				c0-1.928-0.807-3.731-2.148-5.023l21.642-21.642c1.242,1.058,2.831,1.665,4.506,1.665c3.86,0,7-3.14,7-7
				c0-1.675-0.607-3.264-1.665-4.506l21.021-21.021c0.836,0.348,1.729,0.528,2.644,0.528c3.86,0,7-3.14,7-7
				c0-0.915-0.18-1.808-0.528-2.644l9.003-9.003l69.39-12.887L904.712,319.321 M904.601,317.307c-46.667,8.667-93.333,17.333-140,26
				l-10.512,10.512c0.627,0.835,1.012,1.863,1.012,2.988c0,2.761-2.239,5-5,5c-1.125,0-2.152-0.385-2.988-1.012l-23.638,23.638
				c1.557,0.847,2.625,2.478,2.625,4.375c0,2.761-2.239,5-5,5c-1.897,0-3.527-1.069-4.375-2.625l-24.938,24.938
				c1.927,0.694,3.313,2.521,3.313,4.687c0,2.761-2.239,5-5,5c-2.166,0-3.993-1.386-4.687-3.313l-12.313,12.313h3.13h155.87
				c0-37.555,35.445-73,73-73c24.966,0,50.161,14.08,61.987,34.133l76.185-62.686c-1.413,0.469-3.674,0.669-6.506,0.669
				c-16.872,0-54.096-7.117-54.096-7.117c-18.914-3.226-38.788-5.936-59.571-7.933C916.858,318.274,910.691,317.754,904.601,317.307
				L904.601,317.307z"/>
		</g>
		<rect x="518.601" y="391.307" style="opacity:0.9;fill:#2B2B2B;" width="192" height="7"/>
		<rect x="527.396" y="402.307" style="opacity:0.9;fill:#262626;" width="183.205" height="7"/>
		<rect x="527.396" y="413.307" style="opacity:0.9;fill:#141414;" width="183.205" height="7"/>
		<rect x="527.396" y="424.307" style="opacity:0.9;fill:#0A0A0A;" width="180.812" height="7"/>
		<rect x="724.941" y="391.307" style="opacity:0.9;fill:#2B2B2B;" width="113.66" height="7"/>
		<rect x="719.612" y="402.307" style="opacity:0.9;fill:#262626;" width="115.989" height="7"/>
		<rect x="712.601" y="413.307" style="opacity:0.9;fill:#141414;" width="121" height="7"/>
		<rect x="712.601" y="424.307" style="opacity:0.9;fill:#0A0A0A;" width="117" height="7"/>
		<path style="fill:#191919;" d="M534.601,434.307c0-11.052-2.411-22.731-6.711-31.62c-14.354-29.672-49.125-42.123-76.052-42.018
			c-8.528,0.033-30.973,0.46-51.237,17.137c-19.111,15.73-24.516,36.232-26,43c-10-0.467-20-0.934-30-1.402l9.193,20.902
			l24.359-0.25c0,0,0.806-69.125,72.183-74.687c3.939-0.139,39.663-0.806,61.265,27.437c12.075,15.786,12.733,34.256,13,41.5
			C527.591,434.274,531.611,434.341,534.601,434.307z"/>
		<path style="fill:#191919;" d="M971.601,390.307c-3.433-4.476-27.202-34.44-66-35c-8.146-0.117-24.4,0.94-41,11
			c-29.44,17.841-35.946,49.416-37,55c-1.352,4.5-2.703,9-4.055,13.5h8.555c0.028-4.959,0.673-30.673,21.5-51.5
			s46.541-21.472,51.5-21.5c5.385-0.434,14.055-0.419,23.807,2.987c8.672,3.029,14.341,7.393,19.693,11.513
			c4.945,3.807,11.516,9.619,18,18C968.268,392.974,969.935,391.641,971.601,390.307z"/>
		<g>
			<path style="fill:none;stroke:#717171;stroke-linecap:round;stroke-miterlimit:10;" d="M1042.642,332.755
				c-9.828,3.26-60.602-6.447-60.602-6.447c-18.914-3.226-38.788-5.936-59.571-7.933c-6.242-0.6-12.409-1.12-18.498-1.567
				c-46.667,8.667-93.333,17.333-140,26l0,0"/>
			<path style="fill:none;stroke:#717171;stroke-linecap:round;stroke-miterlimit:10;" d="M689.471,425.307
				c-2.166,0-3.993-1.386-4.687-3.313l-12.313,12.313h3.13"/>
			<path style="fill:none;stroke:#717171;stroke-linecap:round;stroke-miterlimit:10;" d="M749.471,361.307
				c-1.125,0-2.152-0.385-2.988-1.012l-23.638,23.638c1.557,0.847,2.625,2.478,2.625,4.375c0,2.761-2.239,5-5,5
				c-1.897,0-3.527-1.069-4.375-2.625l-24.938,24.938c1.927,0.694,3.313,2.521,3.313,4.687c0,2.761-2.239,5-5,5"/>
			<path style="fill:none;stroke:#717171;stroke-linecap:round;stroke-miterlimit:10;" d="M763.971,342.807l-10.512,10.512
				c0.627,0.835,1.012,1.862,1.012,2.988c0,2.761-2.239,5-5,5"/>
		</g>
		<g>
			<g>
				<path style="fill:#2D2D2D;" d="M889.344,405.807c-3.313,2.804-6.436,5.561-9.367,8.446c-2.935,2.871-5.627,5.888-7.965,9.109
					c-1.189,1.598-2.231,3.284-3.193,5.009c-0.508,0.853-0.904,1.755-1.362,2.638c-0.379,0.91-0.825,1.807-1.151,2.748
					c-1.481,3.723-2.264,7.728-2.85,12.05c-1.494-4.082-1.825-8.691-0.936-13.11c0.41-2.217,1.117-4.386,2.054-6.439
					c0.931-2.057,2.067-4.021,3.391-5.829c2.64-3.63,5.909-6.723,9.529-9.206C881.12,408.764,885.075,406.774,889.344,405.807z"/>
			</g>
			<g>
				<path style="fill:#020202;" d="M926.572,494.991c3.313-2.804,6.436-5.561,9.367-8.446c2.935-2.871,5.627-5.888,7.965-9.109
					c1.189-1.598,2.231-3.284,3.193-5.009c0.508-0.853,0.904-1.755,1.362-2.638c0.379-0.91,0.825-1.807,1.151-2.748
					c1.481-3.723,2.264-7.729,2.85-12.05c1.494,4.082,1.825,8.691,0.936,13.11c-0.41,2.217-1.117,4.386-2.054,6.439
					c-0.931,2.057-2.067,4.021-3.391,5.829c-2.64,3.63-5.909,6.723-9.529,9.206C934.796,492.034,930.841,494.025,926.572,494.991z"
					/>
			</g>
		</g>
		<g>
			<g>
				<path style="fill:#2D2D2D;" d="M464.989,498.497c3.765-2.161,7.333-4.309,10.737-6.618c3.404-2.295,6.597-4.776,9.477-7.523
					c1.458-1.358,2.787-2.827,4.045-4.351c0.653-0.748,1.206-1.563,1.816-2.349c0.537-0.827,1.138-1.629,1.628-2.495
					c2.128-3.395,3.621-7.193,4.977-11.338c0.733,4.284,0.227,8.878-1.444,13.064c-0.803,2.107-1.89,4.113-3.182,5.963
					c-1.287,1.855-2.758,3.582-4.387,5.122c-3.252,3.094-7.025,5.547-11.033,7.336C473.611,497.072,469.362,498.317,464.989,498.497
					z"/>
			</g>
			<g>
				<path style="fill:#020202;" d="M444.458,404.061c-3.765,2.161-7.333,4.309-10.737,6.618c-3.404,2.295-6.597,4.776-9.477,7.523
					c-1.458,1.358-2.787,2.827-4.045,4.351c-0.653,0.748-1.206,1.563-1.816,2.349c-0.537,0.827-1.138,1.629-1.628,2.495
					c-2.128,3.395-3.621,7.193-4.977,11.339c-0.733-4.284-0.227-8.878,1.444-13.064c0.803-2.107,1.89-4.113,3.182-5.963
					c1.287-1.855,2.758-3.582,4.387-5.122c3.252-3.094,7.025-5.547,11.033-7.336C435.836,405.486,440.085,404.242,444.458,404.061z"
					/>
			</g>
		</g>
		<g style="opacity:0.5;">
			<path d="M838.601,360.295c2.672-3.831,5.945-7.23,9.421-10.387c3.516-3.117,7.291-5.983,11.339-8.445
				c8.053-4.99,17.162-8.437,26.623-9.956c9.465-1.5,19.249-0.922,28.409,1.568c9.163,2.505,17.751,6.697,25.242,12.232
				c-8.535-3.732-17.223-6.734-26.105-8.427c-8.889-1.608-17.934-1.832-26.769-0.436c-8.83,1.405-17.415,4.319-25.5,8.409
				c-4.028,2.068-7.958,4.387-11.733,6.976C845.721,354.38,842.087,357.211,838.601,360.295z"/>
		</g>
		<g>
			<path style="fill:#30294A;" d="M1065.87,389.208c-7.262,0-13.169-5.908-13.169-13.169s5.907-13.168,13.169-13.168
				c4.358,0,21.412,3.437,21.412,13.168S1070.228,389.208,1065.87,389.208z"/>
			<path style="fill:#F94940;" d="M1065.87,386.208c-5.607,0-10.169-4.562-10.169-10.169s4.562-10.168,10.169-10.168
				c3.776,0,18.412,3.153,18.412,10.168S1069.646,386.208,1065.87,386.208z"/>
			<path style="fill:#FBB539;" d="M1081.282,376.039c0,3.959-11.453,7.168-15.412,7.168s-7.168-3.209-7.168-7.168
				c0-3.959,3.209-7.168,7.168-7.168S1081.282,372.08,1081.282,376.039z"/>
		</g>
		<g>
			<path style="fill:#707070;" d="M323.386,369.036c4.225-2.175,8.534-3.774,12.895-5.383c2.194-0.742,4.376-1.522,6.579-2.231
				l6.645-2.005c2.209-0.69,4.465-1.201,6.695-1.811l3.354-0.879c1.115-0.306,2.237-0.581,3.368-0.819l6.764-1.515l3.381-0.757
				c1.13-0.237,2.269-0.432,3.403-0.649l6.81-1.274c2.269-0.428,4.536-0.867,6.824-1.18l13.696-2.057l13.753-1.607l3.438-0.402
				l3.448-0.294l6.897-0.576c9.188-0.895,18.411-1.239,27.623-1.727c4.604-0.303,9.22-0.279,13.83-0.401l13.833-0.273
				c9.223,0.078,18.446,0.161,27.666,0.304l27.642,1.107c0.105,0.004,0.187,0.093,0.183,0.198c-0.004,0.105-0.092,0.186-0.196,0.183
				l-0.005,0l-27.636-0.905c-9.215-0.075-18.432-0.09-27.646-0.101l-13.817,0.374c-4.604,0.155-9.214,0.165-13.809,0.502
				c-9.196,0.555-18.401,0.965-27.564,1.925l-6.879,0.625l-3.439,0.319l-3.427,0.426l-13.706,1.703l-13.639,2.15
				c-2.278,0.329-4.534,0.783-6.791,1.226l-6.774,1.318c-1.128,0.225-2.26,0.427-3.384,0.671L370.04,356l-6.72,1.557
				c-1.123,0.246-2.237,0.528-3.344,0.84l-3.328,0.899c-2.212,0.622-4.452,1.147-6.639,1.848l-6.58,2.038
				c-2.179,0.719-4.333,1.508-6.5,2.258c-4.271,1.607-8.611,3.269-12.575,5.348l-0.046,0.024c-0.489,0.256-1.093,0.068-1.35-0.421
				c-0.256-0.489-0.068-1.093,0.421-1.35L323.386,369.036z"/>
		</g>
		<g>
			<path d="M575.991,347.801c-21.223-2.341-42.511-4.102-63.835-5.102c-21.323-0.99-42.684-1.154-64.006-0.34
				c-21.315,0.861-42.605,2.769-63.624,6.338c-10.502,1.8-20.94,4.006-31.198,6.847c-5.13,1.415-10.205,3.02-15.203,4.817
				c-4.967,1.813-9.974,3.807-14.51,6.304l0.472-1.028l0,0.001l0.634,3.623l0.471,3.651l0.467,3.652l0.233,1.826l0.117,0.913
				l0.058,0.457l0.029,0.228l0.015,0.114l0.007,0.057l0.004,0.029c0.007,0.009-0.071,0.032-0.52,0.119
				c-0.452,0.068-0.534,0.073-0.53,0.062l-0.006-0.028l-0.012-0.056l-0.024-0.112l-0.049-0.225l-0.098-0.45l-0.196-0.899
				l-0.392-1.799l-0.783-3.597l-0.779-3.598l-0.616-3.626l0-0.001l-0.121-0.702l0.593-0.326c4.831-2.659,9.797-4.613,14.856-6.468
				c5.056-1.819,10.178-3.437,15.349-4.864c10.339-2.864,20.839-5.082,31.396-6.892c21.128-3.587,42.498-5.501,63.881-6.365
				c21.39-0.816,42.807-0.652,64.179,0.341c21.373,1.002,42.703,2.767,63.963,5.112L575.991,347.801z"/>
		</g>
	</g>
</g>
</svg>
