<svg xmlns="http://www.w3.org/2000/svg" viewBox="0 0 138.58 69.79"><defs><style>.cls-1{fill:#ee2c24;}.cls-2{fill:#f47820;}.cls-3{fill:#fdee11;}.cls-4{fill:#0aa64a;}.cls-5{fill:#3d5caa;}.cls-6{fill:#33c6f4;}.cls-7,.cls-9{fill:none;stroke-miterlimit:10;}.cls-7{stroke:#8450a0;stroke-width:5px;}.cls-8{fill:#2a2a2b;}.cls-9{stroke:#2a2a2b;}</style></defs><g id="Layer_2" data-name="Layer 2"><g id="rainbow"><path class="cls-1" d="M0,69.29a69.29,69.29,0,0,1,138.58,0"/><path class="cls-2" d="M5,69.29a64.29,64.29,0,0,1,128.58,0"/><path class="cls-3" d="M10,69.29a59.29,59.29,0,0,1,118.58,0"/><path class="cls-4" d="M15,69.29a54.29,54.29,0,1,1,108.58,0"/><path class="cls-5" d="M20,69.29a49.29,49.29,0,1,1,98.58,0"/><path class="cls-6" d="M25,69.29a44.29,44.29,0,1,1,88.58,0"/><path class="cls-7" d="M30,69.29a39.29,39.29,0,1,1,78.58,0"/><path class="cls-8" d="M30,69.29a39.29,39.29,0,1,1,78.58,0"/><line id="line" class="cls-9" x1="108.58" y1="69.29" x2="30" y2="69.29"/></g></g></svg>